{"glyphs":{"0":{"ha":608,"x_min":0,"x_max":434,"o":"m 87 0 l 87 87 l 347 87 l 347 0 l 87 0 m 0 87 l 0 521 l 87 521 l 87 87 l 0 87 m 347 87 l 347 521 l 434 521 l 434 87 l 347 87 m 87 521 l 87 608 l 347 608 l 347 521 l 87 521 z "},"1":{"ha":347,"x_min":0,"x_max":174,"o":"m 87 0 l 87 434 l 0 434 l 0 521 l 87 521 l 87 608 l 174 608 l 174 0 l 87 0 z "},"2":{"ha":608,"x_min":0,"x_max":434,"o":"m 0 0 l 0 87 l 87 87 l 87 174 l 174 174 l 174 87 l 434 87 l 434 0 l 0 0 m 174 174 l 174 260 l 260 260 l 260 174 l 174 174 m 260 260 l 260 347 l 347 347 l 347 260 l 260 260 m 0 434 l 0 521 l 87 521 l 87 434 l 0 434 m 347 347 l 347 521 l 434 521 l 434 347 l 347 347 m 87 521 l 87 608 l 347 608 l 347 521 l 87 521 z "},"3":{"ha":608,"x_min":0,"x_max":434,"o":"m 87 0 l 87 87 l 347 87 l 347 0 l 87 0 m 0 87 l 0 174 l 87 174 l 87 87 l 0 87 m 347 87 l 347 260 l 434 260 l 434 87 l 347 87 m 174 260 l 174 347 l 347 347 l 347 260 l 174 260 m 0 434 l 0 521 l 87 521 l 87 434 l 0 434 m 347 347 l 347 521 l 434 521 l 434 347 l 347 347 m 87 521 l 87 608 l 347 608 l 347 521 l 87 521 z "},"4":{"ha":608,"x_min":0,"x_max":434,"o":"m 87 347 l 87 434 l 174 434 l 174 347 l 87 347 m 260 0 l 260 174 l 0 174 l 0 347 l 87 347 l 87 260 l 260 260 l 260 434 l 174 434 l 174 521 l 260 521 l 260 608 l 347 608 l 347 260 l 434 260 l 434 174 l 347 174 l 347 0 l 260 0 z "},"5":{"ha":608,"x_min":0,"x_max":434,"o":"m 0 0 l 0 87 l 347 87 l 347 0 l 0 0 m 347 87 l 347 260 l 434 260 l 434 87 l 347 87 m 0 260 l 0 608 l 434 608 l 434 521 l 87 521 l 87 347 l 347 347 l 347 260 l 0 260 z "},"6":{"ha":608,"x_min":0,"x_max":434,"o":"m 87 0 l 87 87 l 347 87 l 347 0 l 87 0 m 347 87 l 347 260 l 434 260 l 434 87 l 347 87 m 0 87 l 0 434 l 87 434 l 87 347 l 347 347 l 347 260 l 87 260 l 87 87 l 0 87 m 87 434 l 87 521 l 174 521 l 174 434 l 87 434 m 174 521 l 174 608 l 347 608 l 347 521 l 174 521 z "},"7":{"ha":608,"x_min":0,"x_max":434,"o":"m 174 0 l 174 260 l 260 260 l 260 0 l 174 0 m 260 260 l 260 434 l 347 434 l 347 260 l 260 260 m 347 434 l 347 521 l 0 521 l 0 608 l 434 608 l 434 434 l 347 434 z "},"8":{"ha":608,"x_min":0,"x_max":434,"o":"m 87 0 l 87 87 l 347 87 l 347 0 l 87 0 m 0 87 l 0 260 l 87 260 l 87 87 l 0 87 m 347 87 l 347 260 l 434 260 l 434 87 l 347 87 m 87 260 l 87 347 l 347 347 l 347 260 l 87 260 m 0 347 l 0 521 l 87 521 l 87 347 l 0 347 m 347 347 l 347 521 l 434 521 l 434 347 l 347 347 m 87 521 l 87 608 l 347 608 l 347 521 l 87 521 z "},"9":{"ha":608,"x_min":0,"x_max":434,"o":"m 87 0 l 87 87 l 260 87 l 260 0 l 87 0 m 260 87 l 260 174 l 347 174 l 347 87 l 260 87 m 0 347 l 0 521 l 87 521 l 87 347 l 0 347 m 347 174 l 347 260 l 87 260 l 87 347 l 347 347 l 347 521 l 434 521 l 434 174 l 347 174 m 87 521 l 87 608 l 347 608 l 347 521 l 87 521 z "}," ":{"ha":521,"x_min":0,"x_max":0,"o":""},"!":{"ha":260,"x_min":0,"x_max":87,"o":"m 0 0 l 0 87 l 87 87 l 87 0 l 0 0 m 0 260 l 0 694 l 87 694 l 87 260 l 0 260 z "},"\"":{"ha":434,"x_min":0,"x_max":260,"o":"m 0 434 l 0 694 l 87 694 l 87 434 l 0 434 m 174 434 l 174 694 l 260 694 l 260 434 l 174 434 z "},"#":{"ha":608,"x_min":0,"x_max":434,"o":"m 260 260 l 260 434 l 174 434 l 174 260 l 260 260 m 87 0 l 87 174 l 0 174 l 0 260 l 87 260 l 87 434 l 0 434 l 0 521 l 87 521 l 87 694 l 174 694 l 174 521 l 260 521 l 260 694 l 347 694 l 347 521 l 434 521 l 434 434 l 347 434 l 347 260 l 434 260 l 434 174 l 347 174 l 347 0 l 260 0 l 260 174 l 174 174 l 174 0 l 87 0 z "},"$":{"ha":608,"x_min":0,"x_max":434,"o":"m 0 87 l 0 174 l 87 174 l 87 87 l 0 87 m 347 87 l 347 260 l 434 260 l 434 87 l 347 87 m 0 347 l 0 521 l 87 521 l 87 347 l 0 347 m 347 434 l 347 521 l 434 521 l 434 434 l 347 434 m 174 -87 l 174 0 l 87 0 l 87 87 l 174 87 l 174 260 l 87 260 l 87 347 l 174 347 l 174 521 l 87 521 l 87 608 l 174 608 l 174 694 l 260 694 l 260 608 l 347 608 l 347 521 l 260 521 l 260 347 l 347 347 l 347 260 l 260 260 l 260 87 l 347 87 l 347 0 l 260 0 l 260 -87 l 174 -87 z "},"%":{"ha":608,"x_min":0,"x_max":434,"o":"m 0 87 l 0 174 l 87 174 l 87 87 l 0 87 m 260 0 l 260 174 l 434 174 l 434 0 l 260 0 m 87 174 l 87 260 l 174 260 l 174 174 l 87 174 m 174 260 l 174 347 l 260 347 l 260 260 l 174 260 m 260 347 l 260 434 l 347 434 l 347 347 l 260 347 m 347 434 l 347 521 l 434 521 l 434 434 l 347 434 m 0 434 l 0 608 l 174 608 l 174 434 l 0 434 z "},"&":{"ha":694,"x_min":0,"x_max":521,"o":"m 87 0 l 87 87 l 347 87 l 347 0 l 87 0 m 434 0 l 434 87 l 521 87 l 521 0 l 434 0 m 347 87 l 347 174 l 434 174 l 434 87 l 347 87 m 260 174 l 260 260 l 347 260 l 347 174 l 260 174 m 434 174 l 434 260 l 521 260 l 521 174 l 434 174 m 0 87 l 0 347 l 87 347 l 87 87 l 0 87 m 174 260 l 174 347 l 260 347 l 260 260 l 174 260 m 87 347 l 87 434 l 174 434 l 174 347 l 87 347 m 174 434 l 174 521 l 260 521 l 260 434 l 174 434 m 0 434 l 0 608 l 87 608 l 87 434 l 0 434 m 260 521 l 260 608 l 347 608 l 347 521 l 260 521 m 87 608 l 87 694 l 260 694 l 260 608 l 87 608 z "},"'":{"ha":347,"x_min":0,"x_max":174,"o":"m 0 434 l 0 521 l 87 521 l 87 434 l 0 434 m 87 521 l 87 608 l 0 608 l 0 694 l 174 694 l 174 521 l 87 521 z "},"(":{"ha":434,"x_min":0,"x_max":260,"o":"m 174 0 l 174 87 l 260 87 l 260 0 l 174 0 m 87 87 l 87 174 l 174 174 l 174 87 l 87 87 m 0 174 l 0 521 l 87 521 l 87 174 l 0 174 m 87 521 l 87 608 l 174 608 l 174 521 l 87 521 m 174 608 l 174 694 l 260 694 l 260 608 l 174 608 z "},")":{"ha":434,"x_min":0,"x_max":260,"o":"m 0 0 l 0 87 l 87 87 l 87 0 l 0 0 m 87 87 l 87 174 l 174 174 l 174 87 l 87 87 m 174 174 l 174 521 l 260 521 l 260 174 l 174 174 m 87 521 l 87 608 l 174 608 l 174 521 l 87 521 m 0 608 l 0 694 l 87 694 l 87 608 l 0 608 z "},"*":{"ha":608,"x_min":0,"x_max":434,"o":"m 87 87 l 87 260 l 174 260 l 174 87 l 87 87 m 260 87 l 260 260 l 347 260 l 347 87 l 260 87 m 174 260 l 174 347 l 260 347 l 260 260 l 174 260 m 0 347 l 0 434 l 174 434 l 174 347 l 0 347 m 260 347 l 260 434 l 434 434 l 434 347 l 260 347 m 174 434 l 174 608 l 260 608 l 260 434 l 174 434 z "},"+":{"ha":608,"x_min":0,"x_max":434,"o":"m 174 87 l 174 260 l 0 260 l 0 347 l 174 347 l 174 521 l 260 521 l 260 347 l 434 347 l 434 260 l 260 260 l 260 87 l 174 87 z "},",":{"ha":347,"x_min":0,"x_max":174,"o":"m 0 -87 l 0 0 l 87 0 l 87 -87 l 0 -87 m 87 0 l 87 87 l 0 87 l 0 174 l 174 174 l 174 0 l 87 0 z "},"-":{"ha":608,"x_min":0,"x_max":434,"o":"m 0 260 l 0 347 l 434 347 l 434 260 l 0 260 z "},".":{"ha":260,"x_min":0,"x_max":87,"o":"m 0 0 l 0 87 l 87 87 l 87 0 l 0 0 z "},"/":{"ha":521,"x_min":0,"x_max":347,"o":"m 0 0 l 0 174 l 87 174 l 87 0 l 0 0 m 87 174 l 87 347 l 174 347 l 174 174 l 87 174 m 174 347 l 174 521 l 260 521 l 260 347 l 174 347 m 260 521 l 260 694 l 347 694 l 347 521 l 260 521 z "},":":{"ha":347,"x_min":0,"x_max":174,"o":"m 0 87 l 0 260 l 174 260 l 174 87 l 0 87 m 0 434 l 0 608 l 174 608 l 174 434 l 0 434 z "},";":{"ha":347,"x_min":0,"x_max":174,"o":"m 0 0 l 0 87 l 87 87 l 87 0 l 0 0 m 87 87 l 87 174 l 0 174 l 0 260 l 174 260 l 174 87 l 87 87 m 0 434 l 0 608 l 174 608 l 174 434 l 0 434 z "},"<":{"ha":521,"x_min":0,"x_max":347,"o":"m 260 0 l 260 87 l 347 87 l 347 0 l 260 0 m 174 87 l 174 174 l 260 174 l 260 87 l 174 87 m 87 174 l 87 260 l 174 260 l 174 174 l 87 174 m 0 260 l 0 347 l 87 347 l 87 260 l 0 260 m 87 347 l 87 434 l 174 434 l 174 347 l 87 347 m 174 434 l 174 521 l 260 521 l 260 434 l 174 434 m 260 521 l 260 608 l 347 608 l 347 521 l 260 521 z "},"=":{"ha":608,"x_min":0,"x_max":434,"o":"m 0 174 l 0 260 l 434 260 l 434 174 l 0 174 m 0 347 l 0 434 l 434 434 l 434 347 l 0 347 z "},">":{"ha":521,"x_min":0,"x_max":347,"o":"m 0 0 l 0 87 l 87 87 l 87 0 l 0 0 m 87 87 l 87 174 l 174 174 l 174 87 l 87 87 m 174 174 l 174 260 l 260 260 l 260 174 l 174 174 m 260 260 l 260 347 l 347 347 l 347 260 l 260 260 m 174 347 l 174 434 l 260 434 l 260 347 l 174 347 m 87 434 l 87 521 l 174 521 l 174 434 l 87 434 m 0 521 l 0 608 l 87 608 l 87 521 l 0 521 z "},"?":{"ha":608,"x_min":0,"x_max":434,"o":"m 174 0 l 174 87 l 260 87 l 260 0 l 174 0 m 174 260 l 174 434 l 347 434 l 347 347 l 260 347 l 260 260 l 174 260 m 0 521 l 0 608 l 87 608 l 87 521 l 0 521 m 347 434 l 347 608 l 434 608 l 434 434 l 347 434 m 87 608 l 87 694 l 347 694 l 347 608 l 87 608 z "},"@":{"ha":608,"x_min":0,"x_max":434,"o":"m 87 0 l 87 87 l 434 87 l 434 0 l 87 0 m 174 260 l 174 434 l 260 434 l 260 260 l 174 260 m 0 87 l 0 608 l 87 608 l 87 87 l 0 87 m 260 174 l 260 260 l 347 260 l 347 434 l 260 434 l 260 521 l 347 521 l 347 608 l 434 608 l 434 174 l 260 174 m 87 608 l 87 694 l 347 694 l 347 608 l 87 608 z "},"A":{"ha":608,"x_min":0,"x_max":434,"o":"m 0 0 l 0 521 l 87 521 l 87 347 l 347 347 l 347 521 l 434 521 l 434 0 l 347 0 l 347 260 l 87 260 l 87 0 l 0 0 m 87 521 l 87 608 l 174 608 l 174 521 l 87 521 m 260 521 l 260 608 l 347 608 l 347 521 l 260 521 m 174 608 l 174 694 l 260 694 l 260 608 l 174 608 z "},"B":{"ha":608,"x_min":0,"x_max":434,"o":"m 347 87 l 347 347 l 434 347 l 434 87 l 347 87 m 347 434 l 347 608 l 434 608 l 434 434 l 347 434 m 0 0 l 0 694 l 347 694 l 347 608 l 87 608 l 87 434 l 347 434 l 347 347 l 87 347 l 87 87 l 347 87 l 347 0 l 0 0 z "},"C":{"ha":608,"x_min":0,"x_max":434,"o":"m 87 0 l 87 87 l 347 87 l 347 0 l 87 0 m 347 87 l 347 174 l 434 174 l 434 87 l 347 87 m 0 87 l 0 608 l 87 608 l 87 87 l 0 87 m 347 521 l 347 608 l 434 608 l 434 521 l 347 521 m 87 608 l 87 694 l 347 694 l 347 608 l 87 608 z "},"D":{"ha":608,"x_min":0,"x_max":434,"o":"m 260 87 l 260 174 l 347 174 l 347 87 l 260 87 m 347 174 l 347 521 l 434 521 l 434 174 l 347 174 m 260 521 l 260 608 l 347 608 l 347 521 l 260 521 m 0 0 l 0 694 l 260 694 l 260 608 l 87 608 l 87 87 l 260 87 l 260 0 l 0 0 z "},"E":{"ha":608,"x_min":0,"x_max":434,"o":"m 0 0 l 0 694 l 434 694 l 434 608 l 87 608 l 87 434 l 347 434 l 347 347 l 87 347 l 87 87 l 434 87 l 434 0 l 0 0 z "},"F":{"ha":608,"x_min":0,"x_max":434,"o":"m 0 0 l 0 694 l 434 694 l 434 608 l 87 608 l 87 434 l 347 434 l 347 347 l 87 347 l 87 0 l 0 0 z "},"G":{"ha":608,"x_min":0,"x_max":434,"o":"m 87 0 l 87 87 l 260 87 l 260 0 l 87 0 m 347 0 l 347 87 l 260 87 l 260 174 l 347 174 l 347 347 l 174 347 l 174 434 l 434 434 l 434 0 l 347 0 m 0 87 l 0 608 l 87 608 l 87 87 l 0 87 m 347 521 l 347 608 l 434 608 l 434 521 l 347 521 m 87 608 l 87 694 l 347 694 l 347 608 l 87 608 z "},"H":{"ha":608,"x_min":0,"x_max":434,"o":"m 0 0 l 0 694 l 87 694 l 87 434 l 347 434 l 347 694 l 434 694 l 434 0 l 347 0 l 347 347 l 87 347 l 87 0 l 0 0 z "},"I":{"ha":434,"x_min":0,"x_max":260,"o":"m 0 0 l 0 87 l 87 87 l 87 608 l 0 608 l 0 694 l 260 694 l 260 608 l 174 608 l 174 87 l 260 87 l 260 0 l 0 0 z "},"J":{"ha":608,"x_min":0,"x_max":434,"o":"m 87 0 l 87 87 l 347 87 l 347 0 l 87 0 m 0 87 l 0 260 l 87 260 l 87 87 l 0 87 m 347 87 l 347 694 l 434 694 l 434 87 l 347 87 z "},"K":{"ha":608,"x_min":0,"x_max":434,"o":"m 347 0 l 347 174 l 434 174 l 434 0 l 347 0 m 260 174 l 260 347 l 347 347 l 347 174 l 260 174 m 174 347 l 174 434 l 260 434 l 260 347 l 174 347 m 260 434 l 260 521 l 347 521 l 347 434 l 260 434 m 0 0 l 0 694 l 87 694 l 87 347 l 174 347 l 174 260 l 87 260 l 87 0 l 0 0 m 347 521 l 347 694 l 434 694 l 434 521 l 347 521 z "},"L":{"ha":608,"x_min":0,"x_max":434,"o":"m 0 0 l 0 694 l 87 694 l 87 87 l 434 87 l 434 0 l 0 0 z "},"M":{"ha":608,"x_min":0,"x_max":434,"o":"m 174 260 l 174 434 l 260 434 l 260 260 l 174 260 m 0 0 l 0 694 l 87 694 l 87 521 l 174 521 l 174 434 l 87 434 l 87 0 l 0 0 m 347 0 l 347 434 l 260 434 l 260 521 l 347 521 l 347 694 l 434 694 l 434 0 l 347 0 z "},"N":{"ha":608,"x_min":0,"x_max":434,"o":"m 174 347 l 174 434 l 260 434 l 260 347 l 174 347 m 0 0 l 0 694 l 87 694 l 87 521 l 174 521 l 174 434 l 87 434 l 87 0 l 0 0 m 347 0 l 347 260 l 260 260 l 260 347 l 347 347 l 347 694 l 434 694 l 434 0 l 347 0 z "},"O":{"ha":608,"x_min":0,"x_max":434,"o":"m 87 0 l 87 87 l 347 87 l 347 0 l 87 0 m 0 87 l 0 608 l 87 608 l 87 87 l 0 87 m 347 87 l 347 608 l 434 608 l 434 87 l 347 87 m 87 608 l 87 694 l 347 694 l 347 608 l 87 608 z "},"P":{"ha":608,"x_min":0,"x_max":434,"o":"m 347 347 l 347 608 l 434 608 l 434 347 l 347 347 m 0 0 l 0 694 l 347 694 l 347 608 l 87 608 l 87 347 l 347 347 l 347 260 l 87 260 l 87 0 l 0 0 z "},"Q":{"ha":608,"x_min":0,"x_max":434,"o":"m 87 0 l 87 87 l 260 87 l 260 0 l 87 0 m 347 0 l 347 87 l 434 87 l 434 0 l 347 0 m 260 87 l 260 174 l 347 174 l 347 87 l 260 87 m 174 174 l 174 260 l 260 260 l 260 174 l 174 174 m 0 87 l 0 608 l 87 608 l 87 87 l 0 87 m 347 174 l 347 608 l 434 608 l 434 174 l 347 174 m 87 608 l 87 694 l 347 694 l 347 608 l 87 608 z "},"R":{"ha":608,"x_min":0,"x_max":434,"o":"m 347 0 l 347 260 l 434 260 l 434 0 l 347 0 m 347 347 l 347 608 l 434 608 l 434 347 l 347 347 m 0 0 l 0 694 l 347 694 l 347 608 l 87 608 l 87 347 l 347 347 l 347 260 l 87 260 l 87 0 l 0 0 z "},"S":{"ha":608,"x_min":0,"x_max":434,"o":"m 87 0 l 87 87 l 347 87 l 347 0 l 87 0 m 0 87 l 0 174 l 87 174 l 87 87 l 0 87 m 347 87 l 347 347 l 434 347 l 434 87 l 347 87 m 87 347 l 87 434 l 347 434 l 347 347 l 87 347 m 0 434 l 0 608 l 87 608 l 87 434 l 0 434 m 347 521 l 347 608 l 434 608 l 434 521 l 347 521 m 87 608 l 87 694 l 347 694 l 347 608 l 87 608 z "},"T":{"ha":608,"x_min":0,"x_max":434,"o":"m 174 0 l 174 608 l 0 608 l 0 694 l 434 694 l 434 608 l 260 608 l 260 0 l 174 0 z "},"U":{"ha":608,"x_min":0,"x_max":434,"o":"m 87 0 l 87 87 l 347 87 l 347 0 l 87 0 m 0 87 l 0 694 l 87 694 l 87 87 l 0 87 m 347 87 l 347 694 l 434 694 l 434 87 l 347 87 z "},"V":{"ha":608,"x_min":0,"x_max":434,"o":"m 174 0 l 174 174 l 260 174 l 260 0 l 174 0 m 87 174 l 87 347 l 174 347 l 174 174 l 87 174 m 260 174 l 260 347 l 347 347 l 347 174 l 260 174 m 0 347 l 0 694 l 87 694 l 87 347 l 0 347 m 347 347 l 347 694 l 434 694 l 434 347 l 347 347 z "},"W":{"ha":608,"x_min":0,"x_max":434,"o":"m 87 0 l 87 174 l 174 174 l 174 0 l 87 0 m 260 0 l 260 174 l 347 174 l 347 0 l 260 0 m 174 174 l 174 434 l 260 434 l 260 174 l 174 174 m 0 174 l 0 694 l 87 694 l 87 174 l 0 174 m 347 174 l 347 694 l 434 694 l 434 174 l 347 174 z "},"X":{"ha":608,"x_min":0,"x_max":434,"o":"m 0 0 l 0 174 l 87 174 l 87 0 l 0 0 m 347 0 l 347 174 l 434 174 l 434 0 l 347 0 m 87 174 l 87 260 l 174 260 l 174 174 l 87 174 m 260 174 l 260 260 l 347 260 l 347 174 l 260 174 m 174 260 l 174 434 l 260 434 l 260 260 l 174 260 m 87 434 l 87 521 l 174 521 l 174 434 l 87 434 m 260 434 l 260 521 l 347 521 l 347 434 l 260 434 m 0 521 l 0 694 l 87 694 l 87 521 l 0 521 m 347 521 l 347 694 l 434 694 l 434 521 l 347 521 z "},"Y":{"ha":608,"x_min":0,"x_max":434,"o":"m 174 0 l 174 434 l 260 434 l 260 0 l 174 0 m 87 434 l 87 521 l 174 521 l 174 434 l 87 434 m 260 434 l 260 521 l 347 521 l 347 434 l 260 434 m 0 521 l 0 694 l 87 694 l 87 521 l 0 521 m 347 521 l 347 694 l 434 694 l 434 521 l 347 521 z "},"Z":{"ha":608,"x_min":0,"x_max":434,"o":"m 0 0 l 0 260 l 87 260 l 87 87 l 434 87 l 434 0 l 0 0 m 87 260 l 87 347 l 174 347 l 174 260 l 87 260 m 174 347 l 174 434 l 260 434 l 260 347 l 174 347 m 260 434 l 260 521 l 347 521 l 347 434 l 260 434 m 347 521 l 347 608 l 0 608 l 0 694 l 434 694 l 434 521 l 347 521 z "},"[":{"ha":347,"x_min":0,"x_max":174,"o":"m 0 0 l 0 694 l 174 694 l 174 608 l 87 608 l 87 87 l 174 87 l 174 0 l 0 0 z "},"\\":{"ha":521,"x_min":0,"x_max":347,"o":"m 260 0 l 260 174 l 347 174 l 347 0 l 260 0 m 174 174 l 174 347 l 260 347 l 260 174 l 174 174 m 87 347 l 87 521 l 174 521 l 174 347 l 87 347 m 0 521 l 0 694 l 87 694 l 87 521 l 0 521 z "},"]":{"ha":347,"x_min":0,"x_max":174,"o":"m 0 0 l 0 87 l 87 87 l 87 608 l 0 608 l 0 694 l 174 694 l 174 0 l 0 0 z "},"^":{"ha":608,"x_min":0,"x_max":434,"o":"m 0 434 l 0 521 l 87 521 l 87 434 l 0 434 m 347 434 l 347 521 l 434 521 l 434 434 l 347 434 m 87 521 l 87 608 l 174 608 l 174 521 l 87 521 m 260 521 l 260 608 l 347 608 l 347 521 l 260 521 m 174 608 l 174 694 l 260 694 l 260 608 l 174 608 z "},"_":{"ha":608,"x_min":0,"x_max":434,"o":"m 0 0 l 0 87 l 434 87 l 434 0 l 0 0 z "},"`":{"ha":434,"x_min":0,"x_max":260,"o":"m 87 521 l 87 608 l 0 608 l 0 694 l 174 694 l 174 608 l 260 608 l 260 521 l 87 521 z "},"a":{"ha":694,"x_min":0,"x_max":521,"o":"m 87 0 l 87 87 l 260 87 l 260 0 l 87 0 m 434 0 l 434 87 l 521 87 l 521 0 l 434 0 m 0 87 l 0 260 l 87 260 l 87 87 l 0 87 m 260 87 l 260 174 l 347 174 l 347 260 l 87 260 l 87 347 l 347 347 l 347 434 l 434 434 l 434 87 l 260 87 m 87 434 l 87 521 l 347 521 l 347 434 l 87 434 z "},"b":{"ha":608,"x_min":0,"x_max":434,"o":"m 174 0 l 174 87 l 347 87 l 347 0 l 174 0 m 347 87 l 347 434 l 434 434 l 434 87 l 347 87 m 174 434 l 174 521 l 347 521 l 347 434 l 174 434 m 0 0 l 0 694 l 87 694 l 87 434 l 174 434 l 174 347 l 87 347 l 87 174 l 174 174 l 174 87 l 87 87 l 87 0 l 0 0 z "},"c":{"ha":608,"x_min":0,"x_max":434,"o":"m 87 0 l 87 87 l 347 87 l 347 0 l 87 0 m 347 87 l 347 174 l 434 174 l 434 87 l 347 87 m 0 87 l 0 434 l 87 434 l 87 87 l 0 87 m 347 347 l 347 434 l 434 434 l 434 347 l 347 347 m 87 434 l 87 521 l 347 521 l 347 434 l 87 434 z "},"d":{"ha":608,"x_min":0,"x_max":434,"o":"m 87 0 l 87 87 l 260 87 l 260 0 l 87 0 m 0 87 l 0 434 l 87 434 l 87 87 l 0 87 m 87 434 l 87 521 l 260 521 l 260 434 l 87 434 m 347 0 l 347 87 l 260 87 l 260 174 l 347 174 l 347 347 l 260 347 l 260 434 l 347 434 l 347 694 l 434 694 l 434 0 l 347 0 z "},"e":{"ha":608,"x_min":0,"x_max":434,"o":"m 87 0 l 87 87 l 434 87 l 434 0 l 87 0 m 0 87 l 0 434 l 87 434 l 87 347 l 347 347 l 347 434 l 434 434 l 434 260 l 87 260 l 87 87 l 0 87 m 87 434 l 87 521 l 347 521 l 347 434 l 87 434 z "},"f":{"ha":521,"x_min":0,"x_max":347,"o":"m 87 0 l 87 434 l 0 434 l 0 521 l 87 521 l 87 608 l 174 608 l 174 521 l 347 521 l 347 434 l 174 434 l 174 0 l 87 0 m 174 608 l 174 694 l 347 694 l 347 608 l 174 608 z "},"g":{"ha":608,"x_min":0,"x_max":434,"o":"m 87 -174 l 87 -87 l 347 -87 l 347 -174 l 87 -174 m 87 0 l 87 87 l 260 87 l 260 0 l 87 0 m 0 87 l 0 434 l 87 434 l 87 87 l 0 87 m 87 434 l 87 521 l 260 521 l 260 434 l 87 434 m 347 -87 l 347 87 l 260 87 l 260 174 l 347 174 l 347 347 l 260 347 l 260 434 l 347 434 l 347 521 l 434 521 l 434 -87 l 347 -87 z "},"h":{"ha":608,"x_min":0,"x_max":434,"o":"m 347 0 l 347 434 l 434 434 l 434 0 l 347 0 m 174 434 l 174 521 l 347 521 l 347 434 l 174 434 m 0 0 l 0 694 l 87 694 l 87 434 l 174 434 l 174 347 l 87 347 l 87 0 l 0 0 z "},"i":{"ha":260,"x_min":0,"x_max":87,"o":"m 0 0 l 0 521 l 87 521 l 87 0 l 0 0 m 0 608 l 0 694 l 87 694 l 87 608 l 0 608 z "},"j":{"ha":434,"x_min":0,"x_max":260,"o":"m 0 -174 l 0 -87 l 174 -87 l 174 -174 l 0 -174 m 174 -87 l 174 521 l 260 521 l 260 -87 l 174 -87 m 174 608 l 174 694 l 260 694 l 260 608 l 174 608 z "},"k":{"ha":608,"x_min":0,"x_max":434,"o":"m 347 0 l 347 87 l 434 87 l 434 0 l 347 0 m 260 87 l 260 174 l 347 174 l 347 87 l 260 87 m 260 347 l 260 434 l 347 434 l 347 347 l 260 347 m 347 434 l 347 521 l 434 521 l 434 434 l 347 434 m 0 0 l 0 694 l 87 694 l 87 260 l 174 260 l 174 347 l 260 347 l 260 174 l 87 174 l 87 0 l 0 0 z "},"l":{"ha":260,"x_min":0,"x_max":87,"o":"m 0 0 l 0 694 l 87 694 l 87 0 l 0 0 z "},"m":{"ha":608,"x_min":0,"x_max":434,"o":"m 174 0 l 174 434 l 260 434 l 260 0 l 174 0 m 347 0 l 347 434 l 434 434 l 434 0 l 347 0 m 0 0 l 0 521 l 174 521 l 174 434 l 87 434 l 87 0 l 0 0 m 260 434 l 260 521 l 347 521 l 347 434 l 260 434 z "},"n":{"ha":608,"x_min":0,"x_max":434,"o":"m 347 0 l 347 434 l 434 434 l 434 0 l 347 0 m 0 0 l 0 521 l 87 521 l 87 434 l 174 434 l 174 347 l 87 347 l 87 0 l 0 0 m 174 434 l 174 521 l 347 521 l 347 434 l 174 434 z "},"o":{"ha":608,"x_min":0,"x_max":434,"o":"m 87 0 l 87 87 l 347 87 l 347 0 l 87 0 m 0 87 l 0 434 l 87 434 l 87 87 l 0 87 m 347 87 l 347 434 l 434 434 l 434 87 l 347 87 m 87 434 l 87 521 l 347 521 l 347 434 l 87 434 z "},"p":{"ha":608,"x_min":0,"x_max":434,"o":"m 174 0 l 174 87 l 347 87 l 347 0 l 174 0 m 347 87 l 347 434 l 434 434 l 434 87 l 347 87 m 0 -174 l 0 521 l 87 521 l 87 434 l 174 434 l 174 347 l 87 347 l 87 174 l 174 174 l 174 87 l 87 87 l 87 -174 l 0 -174 m 174 434 l 174 521 l 347 521 l 347 434 l 174 434 z "},"q":{"ha":608,"x_min":0,"x_max":434,"o":"m 87 0 l 87 87 l 260 87 l 260 0 l 87 0 m 0 87 l 0 434 l 87 434 l 87 87 l 0 87 m 87 434 l 87 521 l 260 521 l 260 434 l 87 434 m 347 -174 l 347 87 l 260 87 l 260 174 l 347 174 l 347 347 l 260 347 l 260 434 l 347 434 l 347 521 l 434 521 l 434 -174 l 347 -174 z "},"r":{"ha":521,"x_min":0,"x_max":347,"o":"m 0 0 l 0 521 l 87 521 l 87 434 l 174 434 l 174 347 l 87 347 l 87 0 l 0 0 m 174 434 l 174 521 l 347 521 l 347 434 l 174 434 z "},"s":{"ha":608,"x_min":0,"x_max":434,"o":"m 0 0 l 0 87 l 347 87 l 347 0 l 0 0 m 347 87 l 347 260 l 434 260 l 434 87 l 347 87 m 87 260 l 87 347 l 347 347 l 347 260 l 87 260 m 0 347 l 0 434 l 87 434 l 87 347 l 0 347 m 87 434 l 87 521 l 434 521 l 434 434 l 87 434 z "},"t":{"ha":434,"x_min":0,"x_max":260,"o":"m 174 0 l 174 87 l 260 87 l 260 0 l 174 0 m 87 87 l 87 434 l 0 434 l 0 521 l 87 521 l 87 694 l 174 694 l 174 521 l 260 521 l 260 434 l 174 434 l 174 87 l 87 87 z "},"u":{"ha":608,"x_min":0,"x_max":434,"o":"m 87 0 l 87 87 l 260 87 l 260 0 l 87 0 m 0 87 l 0 521 l 87 521 l 87 87 l 0 87 m 347 0 l 347 87 l 260 87 l 260 174 l 347 174 l 347 521 l 434 521 l 434 0 l 347 0 z "},"v":{"ha":608,"x_min":0,"x_max":434,"o":"m 174 0 l 174 174 l 260 174 l 260 0 l 174 0 m 87 174 l 87 347 l 174 347 l 174 174 l 87 174 m 260 174 l 260 347 l 347 347 l 347 174 l 260 174 m 0 347 l 0 521 l 87 521 l 87 347 l 0 347 m 347 347 l 347 521 l 434 521 l 434 347 l 347 347 z "},"w":{"ha":608,"x_min":0,"x_max":434,"o":"m 87 0 l 87 174 l 174 174 l 174 0 l 87 0 m 260 0 l 260 174 l 347 174 l 347 0 l 260 0 m 174 174 l 174 434 l 260 434 l 260 174 l 174 174 m 0 174 l 0 521 l 87 521 l 87 174 l 0 174 m 347 174 l 347 521 l 434 521 l 434 174 l 347 174 z "},"x":{"ha":608,"x_min":0,"x_max":434,"o":"m 0 0 l 0 87 l 87 87 l 87 0 l 0 0 m 347 0 l 347 87 l 434 87 l 434 0 l 347 0 m 87 87 l 87 174 l 174 174 l 174 87 l 87 87 m 260 87 l 260 174 l 347 174 l 347 87 l 260 87 m 174 174 l 174 347 l 260 347 l 260 174 l 174 174 m 87 347 l 87 434 l 174 434 l 174 347 l 87 347 m 260 347 l 260 434 l 347 434 l 347 347 l 260 347 m 0 434 l 0 521 l 87 521 l 87 434 l 0 434 m 347 434 l 347 521 l 434 521 l 434 434 l 347 434 z "},"y":{"ha":608,"x_min":0,"x_max":434,"o":"m 0 -174 l 0 -87 l 87 -87 l 87 -174 l 0 -174 m 87 -87 l 87 0 l 174 0 l 174 -87 l 87 -87 m 174 0 l 174 174 l 260 174 l 260 0 l 174 0 m 87 174 l 87 347 l 174 347 l 174 174 l 87 174 m 260 174 l 260 347 l 347 347 l 347 174 l 260 174 m 0 347 l 0 521 l 87 521 l 87 347 l 0 347 m 347 347 l 347 521 l 434 521 l 434 347 l 347 347 z "},"z":{"ha":608,"x_min":0,"x_max":434,"o":"m 0 0 l 0 174 l 87 174 l 87 87 l 434 87 l 434 0 l 0 0 m 87 174 l 87 260 l 174 260 l 174 174 l 87 174 m 174 260 l 174 347 l 260 347 l 260 260 l 174 260 m 260 347 l 260 434 l 0 434 l 0 521 l 434 521 l 434 434 l 347 434 l 347 347 l 260 347 z "},"{":{"ha":434,"x_min":0,"x_max":260,"o":"m 87 0 l 87 260 l 174 260 l 174 87 l 260 87 l 260 0 l 87 0 m 0 260 l 0 434 l 87 434 l 87 260 l 0 260 m 87 434 l 87 694 l 260 694 l 260 608 l 174 608 l 174 434 l 87 434 z "},"|":{"ha":260,"x_min":0,"x_max":87,"o":"m 0 0 l 0 694 l 87 694 l 87 0 l 0 0 z "},"}":{"ha":434,"x_min":0,"x_max":260,"o":"m 0 0 l 0 87 l 87 87 l 87 260 l 174 260 l 174 0 l 0 0 m 174 260 l 174 434 l 260 434 l 260 260 l 174 260 m 87 434 l 87 608 l 0 608 l 0 694 l 174 694 l 174 434 l 87 434 z "},"~":{"ha":608,"x_min":0,"x_max":434,"o":"m 0 347 l 0 434 l 87 434 l 87 347 l 0 347 m 174 347 l 174 434 l 87 434 l 87 521 l 260 521 l 260 434 l 347 434 l 347 347 l 174 347 m 347 434 l 347 521 l 434 521 l 434 434 l 347 434 z "},"¡":{"ha":260,"x_min":0,"x_max":87,"o":"m 0 0 l 0 434 l 87 434 l 87 0 l 0 0 m 0 608 l 0 694 l 87 694 l 87 608 l 0 608 z "},"¢":{"ha":608,"x_min":0,"x_max":434,"o":"m 347 174 l 347 260 l 434 260 l 434 174 l 347 174 m 0 174 l 0 521 l 87 521 l 87 174 l 0 174 m 347 434 l 347 521 l 434 521 l 434 434 l 347 434 m 174 0 l 174 87 l 87 87 l 87 174 l 174 174 l 174 521 l 87 521 l 87 608 l 174 608 l 174 694 l 260 694 l 260 608 l 347 608 l 347 521 l 260 521 l 260 174 l 347 174 l 347 87 l 260 87 l 260 0 l 174 0 z "},"£":{"ha":608,"x_min":0,"x_max":434,"o":"m 0 0 l 0 87 l 174 87 l 174 608 l 260 608 l 260 434 l 347 434 l 347 347 l 260 347 l 260 87 l 434 87 l 434 0 l 0 0 m 260 608 l 260 694 l 434 694 l 434 608 l 260 608 z "},"¤":{"ha":608,"x_min":0,"x_max":434,"o":"m 0 87 l 0 174 l 87 174 l 87 87 l 0 87 m 347 87 l 347 174 l 434 174 l 434 87 l 347 87 m 87 174 l 87 260 l 347 260 l 347 174 l 87 174 m 0 260 l 0 434 l 87 434 l 87 260 l 0 260 m 347 260 l 347 434 l 434 434 l 434 260 l 347 260 m 87 434 l 87 521 l 347 521 l 347 434 l 87 434 m 0 521 l 0 608 l 87 608 l 87 521 l 0 521 m 347 521 l 347 608 l 434 608 l 434 521 l 347 521 z "},"¥":{"ha":608,"x_min":0,"x_max":434,"o":"m 174 0 l 174 87 l 0 87 l 0 174 l 174 174 l 174 260 l 0 260 l 0 347 l 174 347 l 174 434 l 260 434 l 260 347 l 434 347 l 434 260 l 260 260 l 260 174 l 434 174 l 434 87 l 260 87 l 260 0 l 174 0 m 87 434 l 87 521 l 174 521 l 174 434 l 87 434 m 260 434 l 260 521 l 347 521 l 347 434 l 260 434 m 0 521 l 0 694 l 87 694 l 87 521 l 0 521 m 347 521 l 347 694 l 434 694 l 434 521 l 347 521 z "},"¦":{"ha":260,"x_min":0,"x_max":87,"o":"m 0 0 l 0 260 l 87 260 l 87 0 l 0 0 m 0 434 l 0 694 l 87 694 l 87 434 l 0 434 z "},"§":{"ha":608,"x_min":0,"x_max":434,"o":"m 87 0 l 87 87 l 347 87 l 347 0 l 87 0 m 0 87 l 0 174 l 87 174 l 87 87 l 0 87 m 174 174 l 174 260 l 260 260 l 260 174 l 174 174 m 347 87 l 347 260 l 260 260 l 260 434 l 347 434 l 347 347 l 434 347 l 434 87 l 347 87 m 174 434 l 174 521 l 260 521 l 260 434 l 174 434 m 87 260 l 87 347 l 0 347 l 0 608 l 87 608 l 87 434 l 174 434 l 174 260 l 87 260 m 347 521 l 347 608 l 434 608 l 434 521 l 347 521 m 87 608 l 87 694 l 347 694 l 347 608 l 87 608 z "},"¨":{"ha":434,"x_min":0,"x_max":260,"o":"m 0 608 l 0 694 l 87 694 l 87 608 l 0 608 m 174 608 l 174 694 l 260 694 l 260 608 l 174 608 z "},"©":{"ha":608,"x_min":0,"x_max":434,"o":"m 0 87 l 0 174 l 174 174 l 174 87 l 0 87 m 260 87 l 260 174 l 434 174 l 434 87 l 260 87 m 174 174 l 174 260 l 260 260 l 260 174 l 174 174 m 0 260 l 0 347 l 174 347 l 174 260 l 0 260 m 260 260 l 260 347 l 434 347 l 434 260 l 260 260 m 174 521 l 174 608 l 87 608 l 87 521 l 174 521 m 347 521 l 347 608 l 260 608 l 260 521 l 347 521 m 0 434 l 0 694 l 434 694 l 434 434 l 0 434 z "},"ª":{"ha":521,"x_min":0,"x_max":347,"o":"m 0 347 l 0 434 l 87 434 l 87 347 l 0 347 m 87 260 l 87 347 l 260 347 l 260 434 l 87 434 l 87 521 l 260 521 l 260 608 l 347 608 l 347 260 l 87 260 m 87 608 l 87 694 l 260 694 l 260 608 l 87 608 z "},"«":{"ha":608,"x_min":0,"x_max":434,"o":"m 87 174 l 87 260 l 174 260 l 174 174 l 87 174 m 347 174 l 347 260 l 434 260 l 434 174 l 347 174 m 0 260 l 0 347 l 87 347 l 87 260 l 0 260 m 260 260 l 260 347 l 347 347 l 347 260 l 260 260 m 87 347 l 87 434 l 174 434 l 174 347 l 87 347 m 347 347 l 347 434 l 434 434 l 434 347 l 347 347 z "},"¬":{"ha":608,"x_min":0,"x_max":434,"o":"m 347 174 l 347 347 l 0 347 l 0 434 l 434 434 l 434 174 l 347 174 z "},"­":{"ha":434,"x_min":0,"x_max":260,"o":"m 0 347 l 0 434 l 260 434 l 260 347 l 0 347 z "},"¯":{"ha":608,"x_min":0,"x_max":434,"o":"m 0 608 l 0 694 l 434 694 l 434 608 l 0 608 z "},"°":{"ha":521,"x_min":0,"x_max":347,"o":"m 87 347 l 87 434 l 260 434 l 260 347 l 87 347 m 0 434 l 0 608 l 87 608 l 87 434 l 0 434 m 260 434 l 260 608 l 347 608 l 347 434 l 260 434 m 87 608 l 87 694 l 260 694 l 260 608 l 87 608 z "},"±":{"ha":608,"x_min":0,"x_max":434,"o":"m 0 87 l 0 174 l 434 174 l 434 87 l 0 87 m 174 260 l 174 347 l 0 347 l 0 434 l 174 434 l 174 521 l 260 521 l 260 434 l 434 434 l 434 347 l 260 347 l 260 260 l 174 260 z "},"²":{"ha":521,"x_min":0,"x_max":347,"o":"m 0 260 l 0 347 l 87 347 l 87 434 l 174 434 l 174 347 l 347 347 l 347 260 l 0 260 m 174 434 l 174 521 l 260 521 l 260 434 l 174 434 m 0 521 l 0 608 l 87 608 l 87 521 l 0 521 m 260 521 l 260 608 l 347 608 l 347 521 l 260 521 m 87 608 l 87 694 l 260 694 l 260 608 l 87 608 z "},"³":{"ha":521,"x_min":0,"x_max":347,"o":"m 0 260 l 0 347 l 260 347 l 260 260 l 0 260 m 260 347 l 260 434 l 347 434 l 347 347 l 260 347 m 87 434 l 87 521 l 260 521 l 260 434 l 87 434 m 260 521 l 260 608 l 347 608 l 347 521 l 260 521 m 0 608 l 0 694 l 260 694 l 260 608 l 0 608 z "},"´":{"ha":434,"x_min":0,"x_max":260,"o":"m 0 521 l 0 608 l 87 608 l 87 694 l 260 694 l 260 608 l 174 608 l 174 521 l 0 521 z "},"µ":{"ha":608,"x_min":0,"x_max":434,"o":"m 0 -174 l 0 521 l 87 521 l 87 87 l 260 87 l 260 0 l 87 0 l 87 -174 l 0 -174 m 347 0 l 347 87 l 260 87 l 260 174 l 347 174 l 347 521 l 434 521 l 434 0 l 347 0 z "},"¶":{"ha":694,"x_min":0,"x_max":521,"o":"m 260 0 l 260 260 l 87 260 l 87 347 l 0 347 l 0 608 l 87 608 l 87 694 l 521 694 l 521 0 l 434 0 l 434 608 l 347 608 l 347 0 l 260 0 z "},"·":{"ha":347,"x_min":0,"x_max":174,"o":"m 0 260 l 0 434 l 174 434 l 174 260 l 0 260 z "},"¸":{"ha":347,"x_min":0,"x_max":174,"o":"m 0 0 l 0 87 l 87 87 l 87 174 l 174 174 l 174 0 l 0 0 z "},"¹":{"ha":434,"x_min":0,"x_max":260,"o":"m 0 260 l 0 347 l 87 347 l 87 608 l 0 608 l 0 694 l 174 694 l 174 347 l 260 347 l 260 260 l 0 260 z "},"º":{"ha":521,"x_min":0,"x_max":347,"o":"m 87 260 l 87 347 l 260 347 l 260 260 l 87 260 m 0 347 l 0 608 l 87 608 l 87 347 l 0 347 m 260 347 l 260 608 l 347 608 l 347 347 l 260 347 m 87 608 l 87 694 l 260 694 l 260 608 l 87 608 z "},"»":{"ha":608,"x_min":0,"x_max":434,"o":"m 0 174 l 0 260 l 87 260 l 87 174 l 0 174 m 260 174 l 260 260 l 347 260 l 347 174 l 260 174 m 87 260 l 87 347 l 174 347 l 174 260 l 87 260 m 347 260 l 347 347 l 434 347 l 434 260 l 347 260 m 0 347 l 0 434 l 87 434 l 87 347 l 0 347 m 260 347 l 260 434 l 347 434 l 347 347 l 260 347 z "},"¼":{"ha":781,"x_min":0,"x_max":608,"o":"m 521 0 l 521 174 l 347 174 l 347 434 l 434 434 l 434 260 l 521 260 l 521 434 l 608 434 l 608 0 l 521 0 m 0 260 l 0 347 l 87 347 l 87 608 l 0 608 l 0 694 l 174 694 l 174 347 l 260 347 l 260 260 l 0 260 z "},"½":{"ha":868,"x_min":0,"x_max":694,"o":"m 347 0 l 347 87 l 434 87 l 434 174 l 521 174 l 521 87 l 694 87 l 694 0 l 347 0 m 521 174 l 521 260 l 608 260 l 608 174 l 521 174 m 347 260 l 347 347 l 434 347 l 434 260 l 347 260 m 608 260 l 608 347 l 694 347 l 694 260 l 608 260 m 434 347 l 434 434 l 608 434 l 608 347 l 434 347 m 0 260 l 0 347 l 87 347 l 87 608 l 0 608 l 0 694 l 174 694 l 174 347 l 260 347 l 260 260 l 0 260 z "},"¾":{"ha":868,"x_min":0,"x_max":694,"o":"m 0 260 l 0 347 l 260 347 l 260 260 l 0 260 m 260 347 l 260 434 l 347 434 l 347 347 l 260 347 m 608 0 l 608 174 l 434 174 l 434 434 l 521 434 l 521 260 l 608 260 l 608 434 l 694 434 l 694 0 l 608 0 m 87 434 l 87 521 l 260 521 l 260 434 l 87 434 m 260 521 l 260 608 l 347 608 l 347 521 l 260 521 m 0 608 l 0 694 l 260 694 l 260 608 l 0 608 z "},"¿":{"ha":608,"x_min":0,"x_max":434,"o":"m 87 0 l 87 87 l 347 87 l 347 0 l 87 0 m 347 87 l 347 174 l 434 174 l 434 87 l 347 87 m 0 87 l 0 260 l 87 260 l 87 87 l 0 87 m 87 260 l 87 347 l 174 347 l 174 260 l 87 260 m 174 347 l 174 434 l 260 434 l 260 347 l 174 347 m 174 608 l 174 694 l 260 694 l 260 608 l 174 608 z "},"À":{"ha":608,"x_min":0,"x_max":434,"o":"m 0 0 l 0 608 l 87 608 l 87 434 l 347 434 l 347 608 l 434 608 l 434 0 l 347 0 l 347 347 l 87 347 l 87 0 l 0 0 m 87 608 l 87 694 l 347 694 l 347 608 l 87 608 m 87 781 l 87 868 l 0 868 l 0 955 l 174 955 l 174 868 l 260 868 l 260 781 l 87 781 z "},"Á":{"ha":608,"x_min":0,"x_max":434,"o":"m 0 0 l 0 608 l 87 608 l 87 434 l 347 434 l 347 608 l 434 608 l 434 0 l 347 0 l 347 347 l 87 347 l 87 0 l 0 0 m 87 608 l 87 694 l 347 694 l 347 608 l 87 608 m 174 781 l 174 868 l 260 868 l 260 955 l 434 955 l 434 868 l 347 868 l 347 781 l 174 781 z "},"Â":{"ha":608,"x_min":0,"x_max":434,"o":"m 0 0 l 0 608 l 87 608 l 87 434 l 347 434 l 347 608 l 434 608 l 434 0 l 347 0 l 347 347 l 87 347 l 87 0 l 0 0 m 87 608 l 87 694 l 347 694 l 347 608 l 87 608 m 87 781 l 87 868 l 174 868 l 174 781 l 87 781 m 260 781 l 260 868 l 347 868 l 347 781 l 260 781 m 174 868 l 174 955 l 260 955 l 260 868 l 174 868 z "},"Ã":{"ha":608,"x_min":0,"x_max":434,"o":"m 0 0 l 0 608 l 87 608 l 87 434 l 347 434 l 347 608 l 434 608 l 434 0 l 347 0 l 347 347 l 87 347 l 87 0 l 0 0 m 87 608 l 87 694 l 347 694 l 347 608 l 87 608 m 0 781 l 0 868 l 87 868 l 87 781 l 0 781 m 174 781 l 174 868 l 87 868 l 87 955 l 260 955 l 260 868 l 347 868 l 347 781 l 174 781 m 347 868 l 347 955 l 434 955 l 434 868 l 347 868 z "},"Ä":{"ha":608,"x_min":0,"x_max":434,"o":"m 0 0 l 0 608 l 87 608 l 87 434 l 347 434 l 347 608 l 434 608 l 434 0 l 347 0 l 347 347 l 87 347 l 87 0 l 0 0 m 87 608 l 87 694 l 347 694 l 347 608 l 87 608 m 87 781 l 87 868 l 174 868 l 174 781 l 87 781 m 260 781 l 260 868 l 347 868 l 347 781 l 260 781 z "},"Å":{"ha":608,"x_min":0,"x_max":434,"o":"m 0 0 l 0 608 l 87 608 l 87 434 l 347 434 l 347 608 l 434 608 l 434 0 l 347 0 l 347 347 l 87 347 l 87 0 l 0 0 m 87 608 l 87 694 l 174 694 l 174 781 l 260 781 l 260 694 l 347 694 l 347 608 l 87 608 m 87 781 l 87 868 l 174 868 l 174 781 l 87 781 m 260 781 l 260 868 l 347 868 l 347 781 l 260 781 m 174 868 l 174 955 l 260 955 l 260 868 l 174 868 z "},"Æ":{"ha":694,"x_min":0,"x_max":521,"o":"m 0 0 l 0 608 l 87 608 l 87 434 l 260 434 l 260 608 l 87 608 l 87 694 l 521 694 l 521 608 l 347 608 l 347 434 l 521 434 l 521 347 l 347 347 l 347 87 l 521 87 l 521 0 l 260 0 l 260 347 l 87 347 l 87 0 l 0 0 z "},"Ç":{"ha":608,"x_min":0,"x_max":434,"o":"m 87 -174 l 87 -87 l 174 -87 l 174 0 l 87 0 l 87 87 l 347 87 l 347 0 l 260 0 l 260 -174 l 87 -174 m 347 87 l 347 174 l 434 174 l 434 87 l 347 87 m 0 87 l 0 608 l 87 608 l 87 87 l 0 87 m 347 521 l 347 608 l 434 608 l 434 521 l 347 521 m 87 608 l 87 694 l 347 694 l 347 608 l 87 608 z "},"È":{"ha":608,"x_min":0,"x_max":434,"o":"m 0 0 l 0 694 l 434 694 l 434 608 l 87 608 l 87 434 l 347 434 l 347 347 l 87 347 l 87 87 l 434 87 l 434 0 l 0 0 m 87 781 l 87 868 l 0 868 l 0 955 l 174 955 l 174 868 l 260 868 l 260 781 l 87 781 z "},"É":{"ha":608,"x_min":0,"x_max":434,"o":"m 0 0 l 0 694 l 434 694 l 434 608 l 87 608 l 87 434 l 347 434 l 347 347 l 87 347 l 87 87 l 434 87 l 434 0 l 0 0 m 174 781 l 174 868 l 260 868 l 260 955 l 434 955 l 434 868 l 347 868 l 347 781 l 174 781 z "},"Ê":{"ha":608,"x_min":0,"x_max":434,"o":"m 0 0 l 0 694 l 434 694 l 434 608 l 87 608 l 87 434 l 347 434 l 347 347 l 87 347 l 87 87 l 434 87 l 434 0 l 0 0 m 87 781 l 87 868 l 174 868 l 174 781 l 87 781 m 260 781 l 260 868 l 347 868 l 347 781 l 260 781 m 174 868 l 174 955 l 260 955 l 260 868 l 174 868 z "},"Ë":{"ha":608,"x_min":0,"x_max":434,"o":"m 0 0 l 0 694 l 434 694 l 434 608 l 87 608 l 87 434 l 347 434 l 347 347 l 87 347 l 87 87 l 434 87 l 434 0 l 0 0 m 87 781 l 87 868 l 174 868 l 174 781 l 87 781 m 260 781 l 260 868 l 347 868 l 347 781 l 260 781 z "},"Ì":{"ha":434,"x_min":0,"x_max":260,"o":"m 0 0 l 0 87 l 87 87 l 87 608 l 0 608 l 0 694 l 260 694 l 260 608 l 174 608 l 174 87 l 260 87 l 260 0 l 0 0 m 87 781 l 87 868 l 0 868 l 0 955 l 174 955 l 174 868 l 260 868 l 260 781 l 87 781 z "},"Í":{"ha":434,"x_min":0,"x_max":260,"o":"m 0 0 l 0 87 l 87 87 l 87 608 l 0 608 l 0 694 l 260 694 l 260 608 l 174 608 l 174 87 l 260 87 l 260 0 l 0 0 m 0 781 l 0 868 l 87 868 l 87 955 l 260 955 l 260 868 l 174 868 l 174 781 l 0 781 z "},"Î":{"ha":434,"x_min":0,"x_max":260,"o":"m 0 0 l 0 87 l 87 87 l 87 608 l 0 608 l 0 694 l 260 694 l 260 608 l 174 608 l 174 87 l 260 87 l 260 0 l 0 0 m 0 781 l 0 868 l 87 868 l 87 781 l 0 781 m 174 781 l 174 868 l 260 868 l 260 781 l 174 781 m 87 868 l 87 955 l 174 955 l 174 868 l 87 868 z "},"Ï":{"ha":434,"x_min":0,"x_max":260,"o":"m 0 0 l 0 87 l 87 87 l 87 608 l 0 608 l 0 694 l 260 694 l 260 608 l 174 608 l 174 87 l 260 87 l 260 0 l 0 0 m 0 781 l 0 868 l 87 868 l 87 781 l 0 781 m 174 781 l 174 868 l 260 868 l 260 781 l 174 781 z "},"Ð":{"ha":694,"x_min":0,"x_max":521,"o":"m 347 87 l 347 174 l 434 174 l 434 87 l 347 87 m 434 174 l 434 521 l 521 521 l 521 174 l 434 174 m 347 521 l 347 608 l 434 608 l 434 521 l 347 521 m 87 0 l 87 260 l 0 260 l 0 347 l 87 347 l 87 694 l 347 694 l 347 608 l 174 608 l 174 347 l 260 347 l 260 260 l 174 260 l 174 87 l 347 87 l 347 0 l 87 0 z "},"Ñ":{"ha":608,"x_min":0,"x_max":434,"o":"m 174 347 l 174 434 l 260 434 l 260 347 l 174 347 m 0 0 l 0 694 l 87 694 l 87 521 l 174 521 l 174 434 l 87 434 l 87 0 l 0 0 m 347 0 l 347 260 l 260 260 l 260 347 l 347 347 l 347 694 l 434 694 l 434 0 l 347 0 m 0 781 l 0 868 l 87 868 l 87 781 l 0 781 m 174 781 l 174 868 l 87 868 l 87 955 l 260 955 l 260 868 l 347 868 l 347 781 l 174 781 m 347 868 l 347 955 l 434 955 l 434 868 l 347 868 z "},"Ò":{"ha":608,"x_min":0,"x_max":434,"o":"m 87 0 l 87 87 l 347 87 l 347 0 l 87 0 m 0 87 l 0 608 l 87 608 l 87 87 l 0 87 m 347 87 l 347 608 l 434 608 l 434 87 l 347 87 m 87 608 l 87 694 l 347 694 l 347 608 l 87 608 m 87 781 l 87 868 l 0 868 l 0 955 l 174 955 l 174 868 l 260 868 l 260 781 l 87 781 z "},"Ó":{"ha":608,"x_min":0,"x_max":434,"o":"m 87 0 l 87 87 l 347 87 l 347 0 l 87 0 m 0 87 l 0 608 l 87 608 l 87 87 l 0 87 m 347 87 l 347 608 l 434 608 l 434 87 l 347 87 m 87 608 l 87 694 l 347 694 l 347 608 l 87 608 m 174 781 l 174 868 l 260 868 l 260 955 l 434 955 l 434 868 l 347 868 l 347 781 l 174 781 z "},"Ô":{"ha":608,"x_min":0,"x_max":434,"o":"m 87 0 l 87 87 l 347 87 l 347 0 l 87 0 m 0 87 l 0 608 l 87 608 l 87 87 l 0 87 m 347 87 l 347 608 l 434 608 l 434 87 l 347 87 m 87 608 l 87 694 l 347 694 l 347 608 l 87 608 m 87 781 l 87 868 l 174 868 l 174 781 l 87 781 m 260 781 l 260 868 l 347 868 l 347 781 l 260 781 m 174 868 l 174 955 l 260 955 l 260 868 l 174 868 z "},"Õ":{"ha":608,"x_min":0,"x_max":434,"o":"m 87 0 l 87 87 l 347 87 l 347 0 l 87 0 m 0 87 l 0 608 l 87 608 l 87 87 l 0 87 m 347 87 l 347 608 l 434 608 l 434 87 l 347 87 m 87 608 l 87 694 l 347 694 l 347 608 l 87 608 m 0 781 l 0 868 l 87 868 l 87 781 l 0 781 m 174 781 l 174 868 l 87 868 l 87 955 l 260 955 l 260 868 l 347 868 l 347 781 l 174 781 m 347 868 l 347 955 l 434 955 l 434 868 l 347 868 z "},"Ö":{"ha":608,"x_min":0,"x_max":434,"o":"m 87 0 l 87 87 l 347 87 l 347 0 l 87 0 m 0 87 l 0 608 l 87 608 l 87 87 l 0 87 m 347 87 l 347 608 l 434 608 l 434 87 l 347 87 m 87 608 l 87 694 l 347 694 l 347 608 l 87 608 m 87 781 l 87 868 l 174 868 l 174 781 l 87 781 m 260 781 l 260 868 l 347 868 l 347 781 l 260 781 z "},"×":{"ha":608,"x_min":0,"x_max":434,"o":"m 0 87 l 0 174 l 87 174 l 87 87 l 0 87 m 347 87 l 347 174 l 434 174 l 434 87 l 347 87 m 87 174 l 87 260 l 174 260 l 174 174 l 87 174 m 260 174 l 260 260 l 347 260 l 347 174 l 260 174 m 174 260 l 174 347 l 260 347 l 260 260 l 174 260 m 87 347 l 87 434 l 174 434 l 174 347 l 87 347 m 260 347 l 260 434 l 347 434 l 347 347 l 260 347 m 0 434 l 0 521 l 87 521 l 87 434 l 0 434 m 347 434 l 347 521 l 434 521 l 434 434 l 347 434 z "},"Ø":{"ha":608,"x_min":0,"x_max":434,"o":"m 87 0 l 87 87 l 347 87 l 347 0 l 87 0 m 174 347 l 174 434 l 260 434 l 260 347 l 174 347 m 0 87 l 0 608 l 87 608 l 87 347 l 174 347 l 174 260 l 87 260 l 87 87 l 0 87 m 347 87 l 347 434 l 260 434 l 260 521 l 347 521 l 347 608 l 434 608 l 434 87 l 347 87 m 87 608 l 87 694 l 347 694 l 347 608 l 87 608 z "},"Ù":{"ha":608,"x_min":0,"x_max":434,"o":"m 87 0 l 87 87 l 347 87 l 347 0 l 87 0 m 0 87 l 0 694 l 87 694 l 87 87 l 0 87 m 347 87 l 347 694 l 434 694 l 434 87 l 347 87 m 87 781 l 87 868 l 0 868 l 0 955 l 174 955 l 174 868 l 260 868 l 260 781 l 87 781 z "},"Ú":{"ha":608,"x_min":0,"x_max":434,"o":"m 87 0 l 87 87 l 347 87 l 347 0 l 87 0 m 0 87 l 0 694 l 87 694 l 87 87 l 0 87 m 347 87 l 347 694 l 434 694 l 434 87 l 347 87 m 174 781 l 174 868 l 260 868 l 260 955 l 434 955 l 434 868 l 347 868 l 347 781 l 174 781 z "},"Û":{"ha":608,"x_min":0,"x_max":434,"o":"m 87 0 l 87 87 l 347 87 l 347 0 l 87 0 m 0 87 l 0 694 l 87 694 l 87 87 l 0 87 m 347 87 l 347 694 l 434 694 l 434 87 l 347 87 m 87 781 l 87 868 l 174 868 l 174 781 l 87 781 m 260 781 l 260 868 l 347 868 l 347 781 l 260 781 m 174 868 l 174 955 l 260 955 l 260 868 l 174 868 z "},"Ü":{"ha":608,"x_min":0,"x_max":434,"o":"m 87 0 l 87 87 l 347 87 l 347 0 l 87 0 m 0 87 l 0 694 l 87 694 l 87 87 l 0 87 m 347 87 l 347 694 l 434 694 l 434 87 l 347 87 z "},"Ý":{"ha":608,"x_min":0,"x_max":434,"o":"m 174 0 l 174 434 l 260 434 l 260 0 l 174 0 m 87 434 l 87 521 l 174 521 l 174 434 l 87 434 m 260 434 l 260 521 l 347 521 l 347 434 l 260 434 m 0 521 l 0 694 l 87 694 l 87 521 l 0 521 m 347 521 l 347 694 l 434 694 l 434 521 l 347 521 m 174 781 l 174 868 l 260 868 l 260 955 l 434 955 l 434 868 l 347 868 l 347 781 l 174 781 z "},"Þ":{"ha":521,"x_min":0,"x_max":347,"o":"m 260 260 l 260 434 l 347 434 l 347 260 l 260 260 m 0 0 l 0 694 l 87 694 l 87 521 l 260 521 l 260 434 l 87 434 l 87 260 l 260 260 l 260 174 l 87 174 l 87 0 l 0 0 z "},"ß":{"ha":608,"x_min":0,"x_max":434,"o":"m 260 0 l 260 87 l 347 87 l 347 0 l 260 0 m 174 87 l 174 174 l 260 174 l 260 87 l 174 87 m 347 87 l 347 347 l 434 347 l 434 87 l 347 87 m 260 347 l 260 434 l 347 434 l 347 347 l 260 347 m 174 434 l 174 521 l 260 521 l 260 434 l 174 434 m 0 0 l 0 608 l 87 608 l 87 0 l 0 0 m 260 521 l 260 608 l 434 608 l 434 521 l 260 521 m 87 608 l 87 694 l 260 694 l 260 608 l 87 608 z "},"à":{"ha":608,"x_min":0,"x_max":434,"o":"m 87 0 l 87 87 l 260 87 l 260 0 l 87 0 m 0 87 l 0 260 l 87 260 l 87 87 l 0 87 m 347 0 l 347 87 l 260 87 l 260 174 l 347 174 l 347 260 l 87 260 l 87 347 l 347 347 l 347 434 l 434 434 l 434 0 l 347 0 m 87 434 l 87 521 l 347 521 l 347 434 l 87 434 m 87 608 l 87 694 l 0 694 l 0 781 l 174 781 l 174 694 l 260 694 l 260 608 l 87 608 z "},"á":{"ha":608,"x_min":0,"x_max":434,"o":"m 87 0 l 87 87 l 260 87 l 260 0 l 87 0 m 0 87 l 0 260 l 87 260 l 87 87 l 0 87 m 347 0 l 347 87 l 260 87 l 260 174 l 347 174 l 347 260 l 87 260 l 87 347 l 347 347 l 347 434 l 434 434 l 434 0 l 347 0 m 87 434 l 87 521 l 347 521 l 347 434 l 87 434 m 174 608 l 174 694 l 260 694 l 260 781 l 434 781 l 434 694 l 347 694 l 347 608 l 174 608 z "},"â":{"ha":608,"x_min":0,"x_max":434,"o":"m 87 0 l 87 87 l 260 87 l 260 0 l 87 0 m 0 87 l 0 260 l 87 260 l 87 87 l 0 87 m 347 0 l 347 87 l 260 87 l 260 174 l 347 174 l 347 260 l 87 260 l 87 347 l 347 347 l 347 434 l 434 434 l 434 0 l 347 0 m 87 434 l 87 521 l 347 521 l 347 434 l 87 434 m 87 608 l 87 694 l 174 694 l 174 608 l 87 608 m 260 608 l 260 694 l 347 694 l 347 608 l 260 608 m 174 694 l 174 781 l 260 781 l 260 694 l 174 694 z "},"ã":{"ha":608,"x_min":0,"x_max":434,"o":"m 87 0 l 87 87 l 260 87 l 260 0 l 87 0 m 0 87 l 0 260 l 87 260 l 87 87 l 0 87 m 347 0 l 347 87 l 260 87 l 260 174 l 347 174 l 347 260 l 87 260 l 87 347 l 347 347 l 347 434 l 434 434 l 434 0 l 347 0 m 87 434 l 87 521 l 347 521 l 347 434 l 87 434 m 0 608 l 0 694 l 87 694 l 87 608 l 0 608 m 174 608 l 174 694 l 87 694 l 87 781 l 260 781 l 260 694 l 347 694 l 347 608 l 174 608 m 347 694 l 347 781 l 434 781 l 434 694 l 347 694 z "},"ä":{"ha":608,"x_min":0,"x_max":434,"o":"m 87 0 l 87 87 l 260 87 l 260 0 l 87 0 m 0 87 l 0 260 l 87 260 l 87 87 l 0 87 m 347 0 l 347 87 l 260 87 l 260 174 l 347 174 l 347 260 l 87 260 l 87 347 l 347 347 l 347 434 l 434 434 l 434 0 l 347 0 m 87 434 l 87 521 l 347 521 l 347 434 l 87 434 m 87 608 l 87 694 l 174 694 l 174 608 l 87 608 m 260 608 l 260 694 l 347 694 l 347 608 l 260 608 z "},"å":{"ha":608,"x_min":0,"x_max":434,"o":"m 87 0 l 87 87 l 260 87 l 260 0 l 87 0 m 0 87 l 0 260 l 87 260 l 87 87 l 0 87 m 347 0 l 347 87 l 260 87 l 260 174 l 347 174 l 347 260 l 87 260 l 87 347 l 347 347 l 347 434 l 434 434 l 434 0 l 347 0 m 87 434 l 87 521 l 174 521 l 174 608 l 260 608 l 260 521 l 347 521 l 347 434 l 87 434 m 87 608 l 87 694 l 174 694 l 174 608 l 87 608 m 260 608 l 260 694 l 347 694 l 347 608 l 260 608 m 174 694 l 174 781 l 260 781 l 260 694 l 174 694 z "},"æ":{"ha":781,"x_min":0,"x_max":608,"o":"m 87 0 l 87 87 l 260 87 l 260 0 l 87 0 m 347 0 l 347 87 l 608 87 l 608 0 l 347 0 m 0 87 l 0 260 l 87 260 l 87 87 l 0 87 m 260 87 l 260 260 l 87 260 l 87 347 l 260 347 l 260 434 l 347 434 l 347 347 l 521 347 l 521 434 l 608 434 l 608 260 l 347 260 l 347 87 l 260 87 m 87 434 l 87 521 l 260 521 l 260 434 l 87 434 m 347 434 l 347 521 l 521 521 l 521 434 l 347 434 z "},"ç":{"ha":608,"x_min":0,"x_max":434,"o":"m 87 -174 l 87 -87 l 174 -87 l 174 0 l 87 0 l 87 87 l 347 87 l 347 0 l 260 0 l 260 -174 l 87 -174 m 347 87 l 347 174 l 434 174 l 434 87 l 347 87 m 0 87 l 0 434 l 87 434 l 87 87 l 0 87 m 347 347 l 347 434 l 434 434 l 434 347 l 347 347 m 87 434 l 87 521 l 347 521 l 347 434 l 87 434 z "},"è":{"ha":608,"x_min":0,"x_max":434,"o":"m 87 0 l 87 87 l 434 87 l 434 0 l 87 0 m 0 87 l 0 434 l 87 434 l 87 347 l 347 347 l 347 434 l 434 434 l 434 260 l 87 260 l 87 87 l 0 87 m 87 434 l 87 521 l 347 521 l 347 434 l 87 434 m 87 608 l 87 694 l 0 694 l 0 781 l 174 781 l 174 694 l 260 694 l 260 608 l 87 608 z "},"é":{"ha":608,"x_min":0,"x_max":434,"o":"m 87 0 l 87 87 l 434 87 l 434 0 l 87 0 m 0 87 l 0 434 l 87 434 l 87 347 l 347 347 l 347 434 l 434 434 l 434 260 l 87 260 l 87 87 l 0 87 m 87 434 l 87 521 l 347 521 l 347 434 l 87 434 m 174 608 l 174 694 l 260 694 l 260 781 l 434 781 l 434 694 l 347 694 l 347 608 l 174 608 z "},"ê":{"ha":608,"x_min":0,"x_max":434,"o":"m 87 0 l 87 87 l 434 87 l 434 0 l 87 0 m 0 87 l 0 434 l 87 434 l 87 347 l 347 347 l 347 434 l 434 434 l 434 260 l 87 260 l 87 87 l 0 87 m 87 434 l 87 521 l 347 521 l 347 434 l 87 434 m 87 608 l 87 694 l 174 694 l 174 608 l 87 608 m 260 608 l 260 694 l 347 694 l 347 608 l 260 608 m 174 694 l 174 781 l 260 781 l 260 694 l 174 694 z "},"ë":{"ha":608,"x_min":0,"x_max":434,"o":"m 87 0 l 87 87 l 434 87 l 434 0 l 87 0 m 0 87 l 0 434 l 87 434 l 87 347 l 347 347 l 347 434 l 434 434 l 434 260 l 87 260 l 87 87 l 0 87 m 87 434 l 87 521 l 347 521 l 347 434 l 87 434 m 87 608 l 87 694 l 174 694 l 174 608 l 87 608 m 260 608 l 260 694 l 347 694 l 347 608 l 260 608 z "},"ì":{"ha":434,"x_min":0,"x_max":260,"o":"m 0 0 l 0 87 l 87 87 l 87 434 l 0 434 l 0 521 l 174 521 l 174 87 l 260 87 l 260 0 l 0 0 m 87 608 l 87 694 l 0 694 l 0 781 l 174 781 l 174 694 l 260 694 l 260 608 l 87 608 z "},"í":{"ha":434,"x_min":0,"x_max":260,"o":"m 0 0 l 0 87 l 87 87 l 87 434 l 0 434 l 0 521 l 174 521 l 174 87 l 260 87 l 260 0 l 0 0 m 0 608 l 0 694 l 87 694 l 87 781 l 260 781 l 260 694 l 174 694 l 174 608 l 0 608 z "},"î":{"ha":434,"x_min":0,"x_max":260,"o":"m 0 0 l 0 87 l 87 87 l 87 434 l 0 434 l 0 521 l 174 521 l 174 87 l 260 87 l 260 0 l 0 0 m 0 608 l 0 694 l 87 694 l 87 608 l 0 608 m 174 608 l 174 694 l 260 694 l 260 608 l 174 608 m 87 694 l 87 781 l 174 781 l 174 694 l 87 694 z "},"ï":{"ha":434,"x_min":0,"x_max":260,"o":"m 0 0 l 0 87 l 87 87 l 87 434 l 0 434 l 0 521 l 174 521 l 174 87 l 260 87 l 260 0 l 0 0 m 0 608 l 0 694 l 87 694 l 87 608 l 0 608 m 174 608 l 174 694 l 260 694 l 260 608 l 174 608 z "},"ð":{"ha":608,"x_min":0,"x_max":434,"o":"m 347 87 l 347 434 l 434 434 l 434 87 l 347 87 m 87 0 l 87 260 l 0 260 l 0 347 l 87 347 l 87 521 l 347 521 l 347 434 l 174 434 l 174 347 l 260 347 l 260 260 l 174 260 l 174 87 l 347 87 l 347 0 l 87 0 z "},"ñ":{"ha":608,"x_min":0,"x_max":434,"o":"m 347 0 l 347 434 l 434 434 l 434 0 l 347 0 m 0 0 l 0 521 l 87 521 l 87 434 l 174 434 l 174 347 l 87 347 l 87 0 l 0 0 m 174 434 l 174 521 l 347 521 l 347 434 l 174 434 m 0 608 l 0 694 l 87 694 l 87 608 l 0 608 m 174 608 l 174 694 l 87 694 l 87 781 l 260 781 l 260 694 l 347 694 l 347 608 l 174 608 m 347 694 l 347 781 l 434 781 l 434 694 l 347 694 z "},"ò":{"ha":608,"x_min":0,"x_max":434,"o":"m 87 0 l 87 87 l 347 87 l 347 0 l 87 0 m 0 87 l 0 434 l 87 434 l 87 87 l 0 87 m 347 87 l 347 434 l 434 434 l 434 87 l 347 87 m 87 434 l 87 521 l 347 521 l 347 434 l 87 434 m 87 608 l 87 694 l 0 694 l 0 781 l 174 781 l 174 694 l 260 694 l 260 608 l 87 608 z "},"ó":{"ha":608,"x_min":0,"x_max":434,"o":"m 87 0 l 87 87 l 347 87 l 347 0 l 87 0 m 0 87 l 0 434 l 87 434 l 87 87 l 0 87 m 347 87 l 347 434 l 434 434 l 434 87 l 347 87 m 87 434 l 87 521 l 347 521 l 347 434 l 87 434 m 174 608 l 174 694 l 260 694 l 260 781 l 434 781 l 434 694 l 347 694 l 347 608 l 174 608 z "},"ô":{"ha":608,"x_min":0,"x_max":434,"o":"m 87 0 l 87 87 l 347 87 l 347 0 l 87 0 m 0 87 l 0 434 l 87 434 l 87 87 l 0 87 m 347 87 l 347 434 l 434 434 l 434 87 l 347 87 m 87 434 l 87 521 l 347 521 l 347 434 l 87 434 m 87 608 l 87 694 l 174 694 l 174 608 l 87 608 m 260 608 l 260 694 l 347 694 l 347 608 l 260 608 m 174 694 l 174 781 l 260 781 l 260 694 l 174 694 z "},"õ":{"ha":608,"x_min":0,"x_max":434,"o":"m 87 0 l 87 87 l 347 87 l 347 0 l 87 0 m 0 87 l 0 434 l 87 434 l 87 87 l 0 87 m 347 87 l 347 434 l 434 434 l 434 87 l 347 87 m 87 434 l 87 521 l 347 521 l 347 434 l 87 434 m 0 608 l 0 694 l 87 694 l 87 608 l 0 608 m 174 608 l 174 694 l 87 694 l 87 781 l 260 781 l 260 694 l 347 694 l 347 608 l 174 608 m 347 694 l 347 781 l 434 781 l 434 694 l 347 694 z "},"ö":{"ha":608,"x_min":0,"x_max":434,"o":"m 87 0 l 87 87 l 347 87 l 347 0 l 87 0 m 0 87 l 0 434 l 87 434 l 87 87 l 0 87 m 347 87 l 347 434 l 434 434 l 434 87 l 347 87 m 87 434 l 87 521 l 347 521 l 347 434 l 87 434 m 87 608 l 87 694 l 174 694 l 174 608 l 87 608 m 260 608 l 260 694 l 347 694 l 347 608 l 260 608 z "},"÷":{"ha":608,"x_min":0,"x_max":434,"o":"m 174 87 l 174 174 l 260 174 l 260 87 l 174 87 m 0 260 l 0 347 l 434 347 l 434 260 l 0 260 m 174 434 l 174 521 l 260 521 l 260 434 l 174 434 z "},"ø":{"ha":608,"x_min":0,"x_max":434,"o":"m 87 0 l 87 87 l 347 87 l 347 0 l 87 0 m 174 260 l 174 347 l 260 347 l 260 260 l 174 260 m 0 87 l 0 434 l 87 434 l 87 260 l 174 260 l 174 174 l 87 174 l 87 87 l 0 87 m 347 87 l 347 347 l 260 347 l 260 434 l 87 434 l 87 521 l 347 521 l 347 434 l 434 434 l 434 87 l 347 87 z "},"ù":{"ha":608,"x_min":0,"x_max":434,"o":"m 87 0 l 87 87 l 260 87 l 260 0 l 87 0 m 0 87 l 0 521 l 87 521 l 87 87 l 0 87 m 347 0 l 347 87 l 260 87 l 260 174 l 347 174 l 347 521 l 434 521 l 434 0 l 347 0 m 87 608 l 87 694 l 0 694 l 0 781 l 174 781 l 174 694 l 260 694 l 260 608 l 87 608 z "},"ú":{"ha":608,"x_min":0,"x_max":434,"o":"m 87 0 l 87 87 l 260 87 l 260 0 l 87 0 m 0 87 l 0 521 l 87 521 l 87 87 l 0 87 m 347 0 l 347 87 l 260 87 l 260 174 l 347 174 l 347 521 l 434 521 l 434 0 l 347 0 m 174 608 l 174 694 l 260 694 l 260 781 l 434 781 l 434 694 l 347 694 l 347 608 l 174 608 z "},"û":{"ha":608,"x_min":0,"x_max":434,"o":"m 87 0 l 87 87 l 260 87 l 260 0 l 87 0 m 0 87 l 0 521 l 87 521 l 87 87 l 0 87 m 347 0 l 347 87 l 260 87 l 260 174 l 347 174 l 347 521 l 434 521 l 434 0 l 347 0 m 87 608 l 87 694 l 174 694 l 174 608 l 87 608 m 260 608 l 260 694 l 347 694 l 347 608 l 260 608 m 174 694 l 174 781 l 260 781 l 260 694 l 174 694 z "},"ü":{"ha":608,"x_min":0,"x_max":434,"o":"m 87 0 l 87 87 l 260 87 l 260 0 l 87 0 m 0 87 l 0 521 l 87 521 l 87 87 l 0 87 m 347 0 l 347 87 l 260 87 l 260 174 l 347 174 l 347 521 l 434 521 l 434 0 l 347 0 m 87 608 l 87 694 l 174 694 l 174 608 l 87 608 m 260 608 l 260 694 l 347 694 l 347 608 l 260 608 z "},"ý":{"ha":608,"x_min":0,"x_max":434,"o":"m 87 -174 l 87 -87 l 347 -87 l 347 -174 l 87 -174 m 87 87 l 87 174 l 260 174 l 260 87 l 87 87 m 0 174 l 0 521 l 87 521 l 87 174 l 0 174 m 347 -87 l 347 174 l 260 174 l 260 260 l 347 260 l 347 521 l 434 521 l 434 -87 l 347 -87 m 174 608 l 174 694 l 260 694 l 260 781 l 434 781 l 434 694 l 347 694 l 347 608 l 174 608 z "},"þ":{"ha":521,"x_min":0,"x_max":347,"o":"m 260 174 l 260 347 l 347 347 l 347 174 l 260 174 m 0 0 l 0 521 l 87 521 l 87 434 l 260 434 l 260 347 l 87 347 l 87 174 l 260 174 l 260 87 l 87 87 l 87 0 l 0 0 z "},"ÿ":{"ha":608,"x_min":0,"x_max":434,"o":"m 87 -174 l 87 -87 l 347 -87 l 347 -174 l 87 -174 m 87 87 l 87 174 l 260 174 l 260 87 l 87 87 m 0 174 l 0 521 l 87 521 l 87 174 l 0 174 m 347 -87 l 347 174 l 260 174 l 260 260 l 347 260 l 347 521 l 434 521 l 434 -87 l 347 -87 m 87 608 l 87 694 l 174 694 l 174 608 l 87 608 m 260 608 l 260 694 l 347 694 l 347 608 l 260 608 z "},"Ů":{"ha":608,"x_min":0,"x_max":434,"o":"m 87 0 l 87 87 l 347 87 l 347 0 l 87 0 m 0 87 l 0 694 l 87 694 l 87 87 l 0 87 m 347 87 l 347 694 l 434 694 l 434 87 l 347 87 z "},"ů":{"ha":608,"x_min":0,"x_max":434,"o":"m 87 0 l 87 87 l 260 87 l 260 0 l 87 0 m 0 87 l 0 521 l 87 521 l 87 87 l 0 87 m 347 0 l 347 87 l 260 87 l 260 174 l 347 174 l 347 521 l 434 521 l 434 0 l 347 0 z "},"Ÿ":{"ha":608,"x_min":0,"x_max":434,"o":"m 174 0 l 174 434 l 260 434 l 260 0 l 174 0 m 87 434 l 87 521 l 174 521 l 174 434 l 87 434 m 260 434 l 260 521 l 347 521 l 347 434 l 260 434 m 0 521 l 0 694 l 87 694 l 87 521 l 0 521 m 347 521 l 347 694 l 434 694 l 434 521 l 347 521 m 87 781 l 87 868 l 174 868 l 174 781 l 87 781 m 260 781 l 260 868 l 347 868 l 347 781 l 260 781 z "},"ʹ":{"ha":347,"x_min":0,"x_max":174,"o":"m 0 347 l 0 521 l 87 521 l 87 694 l 174 694 l 174 434 l 87 434 l 87 347 l 0 347 z "},"͵":{"ha":347,"x_min":0,"x_max":174,"o":"m 0 0 l 0 174 l 87 174 l 87 347 l 174 347 l 174 87 l 87 87 l 87 0 l 0 0 z "},"ͺ":{"ha":347,"x_min":0,"x_max":174,"o":"m 0 0 l 0 174 l 87 174 l 87 87 l 174 87 l 174 0 l 0 0 z "},";":{"ha":347,"x_min":0,"x_max":174,"o":"m 0 -87 l 0 0 l 87 0 l 87 -87 l 0 -87 m 87 0 l 87 87 l 0 87 l 0 174 l 174 174 l 174 0 l 87 0 m 0 347 l 0 521 l 174 521 l 174 347 l 0 347 z "},"΄":{"ha":260,"x_min":0,"x_max":87,"o":"m 0 521 l 0 694 l 87 694 l 87 521 l 0 521 z "},"΅":{"ha":608,"x_min":0,"x_max":434,"o":"m 0 521 l 0 608 l 87 608 l 87 521 l 0 521 m 347 521 l 347 608 l 434 608 l 434 521 l 347 521 m 174 521 l 174 694 l 260 694 l 260 521 l 174 521 z "},"Ά":{"ha":694,"x_min":0,"x_max":521,"o":"m 87 0 l 87 521 l 0 521 l 0 694 l 87 694 l 87 608 l 174 608 l 174 434 l 434 434 l 434 608 l 521 608 l 521 0 l 434 0 l 434 347 l 174 347 l 174 0 l 87 0 m 174 608 l 174 694 l 434 694 l 434 608 l 174 608 z "},"·":{"ha":260,"x_min":0,"x_max":87,"o":"m 0 521 l 0 608 l 87 608 l 87 521 l 0 521 z "},"Έ":{"ha":694,"x_min":0,"x_max":521,"o":"m 87 0 l 87 521 l 0 521 l 0 694 l 521 694 l 521 608 l 174 608 l 174 434 l 434 434 l 434 347 l 174 347 l 174 87 l 521 87 l 521 0 l 87 0 z "},"Ή":{"ha":694,"x_min":0,"x_max":521,"o":"m 87 0 l 87 521 l 0 521 l 0 694 l 174 694 l 174 434 l 434 434 l 434 694 l 521 694 l 521 0 l 434 0 l 434 347 l 174 347 l 174 0 l 87 0 z "},"Ί":{"ha":521,"x_min":0,"x_max":347,"o":"m 87 0 l 87 87 l 174 87 l 174 608 l 87 608 l 87 521 l 0 521 l 0 694 l 347 694 l 347 608 l 260 608 l 260 87 l 347 87 l 347 0 l 87 0 z "},"Ό":{"ha":694,"x_min":0,"x_max":521,"o":"m 174 0 l 174 87 l 434 87 l 434 0 l 174 0 m 434 87 l 434 608 l 521 608 l 521 87 l 434 87 m 87 87 l 87 521 l 0 521 l 0 694 l 87 694 l 87 608 l 174 608 l 174 87 l 87 87 m 174 608 l 174 694 l 434 694 l 434 608 l 174 608 z "},"Ύ":{"ha":694,"x_min":0,"x_max":521,"o":"m 260 0 l 260 434 l 347 434 l 347 0 l 260 0 m 174 434 l 174 521 l 260 521 l 260 434 l 174 434 m 347 434 l 347 521 l 434 521 l 434 434 l 347 434 m 0 521 l 0 694 l 174 694 l 174 521 l 0 521 m 434 521 l 434 694 l 521 694 l 521 521 l 434 521 z "},"Ώ":{"ha":694,"x_min":0,"x_max":521,"o":"m 87 0 l 87 87 l 174 87 l 174 174 l 260 174 l 260 0 l 87 0 m 347 0 l 347 174 l 434 174 l 434 87 l 521 87 l 521 0 l 347 0 m 434 174 l 434 608 l 521 608 l 521 174 l 434 174 m 87 174 l 87 521 l 0 521 l 0 694 l 87 694 l 87 608 l 174 608 l 174 174 l 87 174 m 174 608 l 174 694 l 434 694 l 434 608 l 174 608 z "},"ΐ":{"ha":434,"x_min":0,"x_max":260,"o":"m 174 0 l 174 87 l 260 87 l 260 0 l 174 0 m 87 87 l 87 521 l 174 521 l 174 87 l 87 87 m 0 521 l 0 608 l 87 608 l 87 521 l 0 521 m 174 521 l 174 608 l 260 608 l 260 521 l 174 521 m 87 608 l 87 781 l 174 781 l 174 608 l 87 608 z "},"Α":{"ha":608,"x_min":0,"x_max":434,"o":"m 0 0 l 0 608 l 87 608 l 87 434 l 347 434 l 347 608 l 434 608 l 434 0 l 347 0 l 347 347 l 87 347 l 87 0 l 0 0 m 87 608 l 87 694 l 347 694 l 347 608 l 87 608 z "},"Β":{"ha":608,"x_min":0,"x_max":434,"o":"m 347 87 l 347 347 l 434 347 l 434 87 l 347 87 m 347 434 l 347 608 l 434 608 l 434 434 l 347 434 m 0 0 l 0 694 l 347 694 l 347 608 l 87 608 l 87 434 l 347 434 l 347 347 l 87 347 l 87 87 l 347 87 l 347 0 l 0 0 z "},"Γ":{"ha":608,"x_min":0,"x_max":434,"o":"m 0 0 l 0 694 l 434 694 l 434 608 l 87 608 l 87 0 l 0 0 z "},"Δ":{"ha":608,"x_min":0,"x_max":434,"o":"m 0 0 l 0 260 l 87 260 l 87 0 l 0 0 m 347 0 l 347 260 l 434 260 l 434 0 l 347 0 m 87 260 l 87 521 l 174 521 l 174 260 l 87 260 m 260 260 l 260 521 l 347 521 l 347 260 l 260 260 m 174 521 l 174 694 l 260 694 l 260 521 l 174 521 z "},"Ε":{"ha":608,"x_min":0,"x_max":434,"o":"m 0 0 l 0 694 l 434 694 l 434 608 l 87 608 l 87 434 l 347 434 l 347 347 l 87 347 l 87 87 l 434 87 l 434 0 l 0 0 z "},"Ζ":{"ha":608,"x_min":0,"x_max":434,"o":"m 0 0 l 0 260 l 87 260 l 87 87 l 434 87 l 434 0 l 0 0 m 87 260 l 87 347 l 174 347 l 174 260 l 87 260 m 174 347 l 174 434 l 260 434 l 260 347 l 174 347 m 260 434 l 260 521 l 347 521 l 347 434 l 260 434 m 347 521 l 347 608 l 0 608 l 0 694 l 434 694 l 434 521 l 347 521 z "},"Η":{"ha":608,"x_min":0,"x_max":434,"o":"m 0 0 l 0 694 l 87 694 l 87 434 l 347 434 l 347 694 l 434 694 l 434 0 l 347 0 l 347 347 l 87 347 l 87 0 l 0 0 z "},"Θ":{"ha":608,"x_min":0,"x_max":434,"o":"m 87 0 l 87 87 l 347 87 l 347 0 l 87 0 m 174 347 l 174 434 l 260 434 l 260 347 l 174 347 m 0 87 l 0 608 l 87 608 l 87 87 l 0 87 m 347 87 l 347 608 l 434 608 l 434 87 l 347 87 m 87 608 l 87 694 l 347 694 l 347 608 l 87 608 z "},"Ι":{"ha":434,"x_min":0,"x_max":260,"o":"m 0 0 l 0 87 l 87 87 l 87 608 l 0 608 l 0 694 l 260 694 l 260 608 l 174 608 l 174 87 l 260 87 l 260 0 l 0 0 z "},"Κ":{"ha":608,"x_min":0,"x_max":434,"o":"m 347 0 l 347 87 l 434 87 l 434 0 l 347 0 m 260 87 l 260 174 l 347 174 l 347 87 l 260 87 m 174 174 l 174 260 l 260 260 l 260 174 l 174 174 m 174 434 l 174 521 l 260 521 l 260 434 l 174 434 m 260 521 l 260 608 l 347 608 l 347 521 l 260 521 m 0 0 l 0 694 l 87 694 l 87 434 l 174 434 l 174 260 l 87 260 l 87 0 l 0 0 m 347 608 l 347 694 l 434 694 l 434 608 l 347 608 z "},"Λ":{"ha":608,"x_min":0,"x_max":434,"o":"m 0 0 l 0 260 l 87 260 l 87 0 l 0 0 m 347 0 l 347 260 l 434 260 l 434 0 l 347 0 m 87 260 l 87 521 l 174 521 l 174 260 l 87 260 m 260 260 l 260 521 l 347 521 l 347 260 l 260 260 m 174 521 l 174 694 l 260 694 l 260 521 l 174 521 z "},"Μ":{"ha":608,"x_min":0,"x_max":434,"o":"m 174 260 l 174 434 l 260 434 l 260 260 l 174 260 m 0 0 l 0 694 l 87 694 l 87 521 l 174 521 l 174 434 l 87 434 l 87 0 l 0 0 m 347 0 l 347 434 l 260 434 l 260 521 l 347 521 l 347 694 l 434 694 l 434 0 l 347 0 z "},"Ν":{"ha":608,"x_min":0,"x_max":434,"o":"m 174 347 l 174 434 l 260 434 l 260 347 l 174 347 m 0 0 l 0 694 l 87 694 l 87 521 l 174 521 l 174 434 l 87 434 l 87 0 l 0 0 m 347 0 l 347 260 l 260 260 l 260 347 l 347 347 l 347 694 l 434 694 l 434 0 l 347 0 z "},"Ξ":{"ha":608,"x_min":0,"x_max":434,"o":"m 0 0 l 0 87 l 434 87 l 434 0 l 0 0 m 0 347 l 0 434 l 434 434 l 434 347 l 0 347 m 0 608 l 0 694 l 434 694 l 434 608 l 0 608 z "},"Ο":{"ha":608,"x_min":0,"x_max":434,"o":"m 87 0 l 87 87 l 347 87 l 347 0 l 87 0 m 0 87 l 0 608 l 87 608 l 87 87 l 0 87 m 347 87 l 347 608 l 434 608 l 434 87 l 347 87 m 87 608 l 87 694 l 347 694 l 347 608 l 87 608 z "},"Π":{"ha":694,"x_min":0,"x_max":521,"o":"m 87 0 l 87 608 l 0 608 l 0 694 l 521 694 l 521 608 l 434 608 l 434 0 l 347 0 l 347 608 l 174 608 l 174 0 l 87 0 z "},"Ρ":{"ha":608,"x_min":0,"x_max":434,"o":"m 347 347 l 347 608 l 434 608 l 434 347 l 347 347 m 0 0 l 0 694 l 347 694 l 347 608 l 87 608 l 87 347 l 347 347 l 347 260 l 87 260 l 87 0 l 0 0 z "},"Σ":{"ha":608,"x_min":0,"x_max":434,"o":"m 0 0 l 0 174 l 87 174 l 87 87 l 434 87 l 434 0 l 0 0 m 87 174 l 87 260 l 174 260 l 174 174 l 87 174 m 174 260 l 174 434 l 260 434 l 260 260 l 174 260 m 87 434 l 87 521 l 174 521 l 174 434 l 87 434 m 0 521 l 0 694 l 434 694 l 434 608 l 87 608 l 87 521 l 0 521 z "},"Τ":{"ha":608,"x_min":0,"x_max":434,"o":"m 174 0 l 174 608 l 0 608 l 0 694 l 434 694 l 434 608 l 260 608 l 260 0 l 174 0 z "},"Υ":{"ha":608,"x_min":0,"x_max":434,"o":"m 174 0 l 174 434 l 260 434 l 260 0 l 174 0 m 87 434 l 87 521 l 174 521 l 174 434 l 87 434 m 260 434 l 260 521 l 347 521 l 347 434 l 260 434 m 0 521 l 0 694 l 87 694 l 87 521 l 0 521 m 347 521 l 347 694 l 434 694 l 434 521 l 347 521 z "},"Φ":{"ha":608,"x_min":0,"x_max":434,"o":"m 0 174 l 0 521 l 87 521 l 87 174 l 0 174 m 347 174 l 347 521 l 434 521 l 434 174 l 347 174 m 174 0 l 174 87 l 87 87 l 87 174 l 174 174 l 174 521 l 87 521 l 87 608 l 174 608 l 174 694 l 260 694 l 260 608 l 347 608 l 347 521 l 260 521 l 260 174 l 347 174 l 347 87 l 260 87 l 260 0 l 174 0 z "},"Χ":{"ha":608,"x_min":0,"x_max":434,"o":"m 0 0 l 0 174 l 87 174 l 87 0 l 0 0 m 347 0 l 347 174 l 434 174 l 434 0 l 347 0 m 87 174 l 87 260 l 174 260 l 174 174 l 87 174 m 260 174 l 260 260 l 347 260 l 347 174 l 260 174 m 174 260 l 174 434 l 260 434 l 260 260 l 174 260 m 87 434 l 87 521 l 174 521 l 174 434 l 87 434 m 260 434 l 260 521 l 347 521 l 347 434 l 260 434 m 0 521 l 0 694 l 87 694 l 87 521 l 0 521 m 347 521 l 347 694 l 434 694 l 434 521 l 347 521 z "},"Ψ":{"ha":608,"x_min":0,"x_max":434,"o":"m 0 434 l 0 694 l 87 694 l 87 434 l 0 434 m 174 0 l 174 347 l 87 347 l 87 434 l 174 434 l 174 694 l 260 694 l 260 434 l 347 434 l 347 347 l 260 347 l 260 0 l 174 0 m 347 434 l 347 694 l 434 694 l 434 434 l 347 434 z "},"Ω":{"ha":608,"x_min":0,"x_max":434,"o":"m 0 0 l 0 87 l 87 87 l 87 174 l 174 174 l 174 0 l 0 0 m 260 0 l 260 174 l 347 174 l 347 87 l 434 87 l 434 0 l 260 0 m 0 174 l 0 608 l 87 608 l 87 174 l 0 174 m 347 174 l 347 608 l 434 608 l 434 174 l 347 174 m 87 608 l 87 694 l 347 694 l 347 608 l 87 608 z "},"Ϊ":{"ha":434,"x_min":0,"x_max":260,"o":"m 0 0 l 0 87 l 87 87 l 87 608 l 0 608 l 0 694 l 260 694 l 260 608 l 174 608 l 174 87 l 260 87 l 260 0 l 0 0 m 0 781 l 0 868 l 87 868 l 87 781 l 0 781 m 174 781 l 174 868 l 260 868 l 260 781 l 174 781 z "},"Ϋ":{"ha":608,"x_min":0,"x_max":434,"o":"m 174 0 l 174 434 l 260 434 l 260 0 l 174 0 m 87 434 l 87 521 l 174 521 l 174 434 l 87 434 m 260 434 l 260 521 l 347 521 l 347 434 l 260 434 m 0 521 l 0 694 l 87 694 l 87 521 l 0 521 m 347 521 l 347 694 l 434 694 l 434 521 l 347 521 m 87 781 l 87 868 l 174 868 l 174 781 l 87 781 m 260 781 l 260 868 l 347 868 l 347 781 l 260 781 z "},"ά":{"ha":608,"x_min":0,"x_max":434,"o":"m 87 0 l 87 87 l 260 87 l 260 0 l 87 0 m 347 0 l 347 87 l 434 87 l 434 0 l 347 0 m 0 87 l 0 434 l 87 434 l 87 87 l 0 87 m 260 87 l 260 434 l 347 434 l 347 87 l 260 87 m 87 434 l 87 521 l 260 521 l 260 434 l 87 434 m 347 434 l 347 521 l 434 521 l 434 434 l 347 434 m 174 608 l 174 781 l 260 781 l 260 608 l 174 608 z "},"έ":{"ha":608,"x_min":0,"x_max":434,"o":"m 87 0 l 87 87 l 434 87 l 434 0 l 87 0 m 0 87 l 0 434 l 87 434 l 87 347 l 347 347 l 347 260 l 87 260 l 87 87 l 0 87 m 87 434 l 87 521 l 434 521 l 434 434 l 87 434 m 174 608 l 174 781 l 260 781 l 260 608 l 174 608 z "},"ή":{"ha":608,"x_min":0,"x_max":434,"o":"m 347 -174 l 347 434 l 434 434 l 434 -174 l 347 -174 m 0 0 l 0 521 l 87 521 l 87 434 l 174 434 l 174 347 l 87 347 l 87 0 l 0 0 m 174 434 l 174 521 l 347 521 l 347 434 l 174 434 m 174 608 l 174 781 l 260 781 l 260 608 l 174 608 z "},"ί":{"ha":347,"x_min":0,"x_max":174,"o":"m 87 0 l 87 87 l 174 87 l 174 0 l 87 0 m 0 87 l 0 521 l 87 521 l 87 87 l 0 87 m 0 608 l 0 781 l 87 781 l 87 608 l 0 608 z "},"ΰ":{"ha":608,"x_min":0,"x_max":434,"o":"m 87 0 l 87 87 l 347 87 l 347 0 l 87 0 m 0 87 l 0 521 l 87 521 l 87 87 l 0 87 m 347 87 l 347 521 l 434 521 l 434 87 l 347 87 m 0 608 l 0 694 l 87 694 l 87 608 l 0 608 m 347 608 l 347 694 l 434 694 l 434 608 l 347 608 m 174 608 l 174 781 l 260 781 l 260 608 l 174 608 z "},"α":{"ha":608,"x_min":0,"x_max":434,"o":"m 87 0 l 87 87 l 260 87 l 260 0 l 87 0 m 347 0 l 347 87 l 434 87 l 434 0 l 347 0 m 0 87 l 0 434 l 87 434 l 87 87 l 0 87 m 260 87 l 260 434 l 347 434 l 347 87 l 260 87 m 87 434 l 87 521 l 260 521 l 260 434 l 87 434 m 347 434 l 347 521 l 434 521 l 434 434 l 347 434 z "},"β":{"ha":608,"x_min":0,"x_max":434,"o":"m 347 174 l 347 347 l 434 347 l 434 174 l 347 174 m 0 -87 l 0 608 l 87 608 l 87 434 l 347 434 l 347 347 l 87 347 l 87 174 l 347 174 l 347 87 l 87 87 l 87 -87 l 0 -87 m 347 434 l 347 608 l 434 608 l 434 434 l 347 434 m 87 608 l 87 694 l 347 694 l 347 608 l 87 608 z "},"γ":{"ha":608,"x_min":0,"x_max":434,"o":"m 174 -174 l 174 174 l 260 174 l 260 -174 l 174 -174 m 87 174 l 87 347 l 174 347 l 174 174 l 87 174 m 260 174 l 260 347 l 347 347 l 347 174 l 260 174 m 0 347 l 0 521 l 87 521 l 87 347 l 0 347 m 347 347 l 347 521 l 434 521 l 434 347 l 347 347 z "},"δ":{"ha":608,"x_min":0,"x_max":434,"o":"m 87 0 l 87 87 l 347 87 l 347 0 l 87 0 m 0 87 l 0 347 l 87 347 l 87 87 l 0 87 m 347 87 l 347 347 l 434 347 l 434 87 l 347 87 m 87 347 l 87 521 l 174 521 l 174 434 l 347 434 l 347 347 l 87 347 m 0 521 l 0 694 l 347 694 l 347 608 l 87 608 l 87 521 l 0 521 z "},"ε":{"ha":608,"x_min":0,"x_max":434,"o":"m 87 0 l 87 87 l 434 87 l 434 0 l 87 0 m 0 87 l 0 434 l 87 434 l 87 347 l 347 347 l 347 260 l 87 260 l 87 87 l 0 87 m 87 434 l 87 521 l 434 521 l 434 434 l 87 434 z "},"ζ":{"ha":608,"x_min":0,"x_max":434,"o":"m 174 -174 l 174 -87 l 347 -87 l 347 -174 l 174 -174 m 347 -87 l 347 0 l 87 0 l 87 87 l 434 87 l 434 -87 l 347 -87 m 0 87 l 0 260 l 87 260 l 87 87 l 0 87 m 87 260 l 87 347 l 174 347 l 174 260 l 87 260 m 174 347 l 174 434 l 260 434 l 260 347 l 174 347 m 260 434 l 260 521 l 0 521 l 0 608 l 347 608 l 347 694 l 434 694 l 434 521 l 347 521 l 347 434 l 260 434 z "},"η":{"ha":608,"x_min":0,"x_max":434,"o":"m 347 -174 l 347 434 l 434 434 l 434 -174 l 347 -174 m 0 0 l 0 521 l 87 521 l 87 434 l 174 434 l 174 347 l 87 347 l 87 0 l 0 0 m 174 434 l 174 521 l 347 521 l 347 434 l 174 434 z "},"θ":{"ha":608,"x_min":0,"x_max":434,"o":"m 87 0 l 87 87 l 347 87 l 347 0 l 87 0 m 174 174 l 174 347 l 260 347 l 260 174 l 174 174 m 0 87 l 0 434 l 87 434 l 87 87 l 0 87 m 347 87 l 347 434 l 434 434 l 434 87 l 347 87 m 87 434 l 87 521 l 347 521 l 347 434 l 87 434 z "},"ι":{"ha":347,"x_min":0,"x_max":174,"o":"m 87 0 l 87 87 l 174 87 l 174 0 l 87 0 m 0 87 l 0 521 l 87 521 l 87 87 l 0 87 z "},"κ":{"ha":608,"x_min":0,"x_max":434,"o":"m 347 0 l 347 87 l 434 87 l 434 0 l 347 0 m 260 87 l 260 174 l 347 174 l 347 87 l 260 87 m 174 174 l 174 260 l 260 260 l 260 174 l 174 174 m 174 347 l 174 434 l 260 434 l 260 347 l 174 347 m 0 0 l 0 521 l 87 521 l 87 347 l 174 347 l 174 260 l 87 260 l 87 0 l 0 0 m 260 434 l 260 521 l 434 521 l 434 434 l 260 434 z "},"λ":{"ha":608,"x_min":0,"x_max":434,"o":"m 0 0 l 0 174 l 87 174 l 87 0 l 0 0 m 347 0 l 347 174 l 434 174 l 434 0 l 347 0 m 87 174 l 87 347 l 174 347 l 174 174 l 87 174 m 260 174 l 260 347 l 347 347 l 347 174 l 260 174 m 174 347 l 174 521 l 260 521 l 260 347 l 174 347 m 87 521 l 87 608 l 174 608 l 174 521 l 87 521 m 0 608 l 0 694 l 87 694 l 87 608 l 0 608 z "},"μ":{"ha":608,"x_min":0,"x_max":434,"o":"m 0 -174 l 0 521 l 87 521 l 87 87 l 260 87 l 260 0 l 87 0 l 87 -174 l 0 -174 m 347 0 l 347 87 l 260 87 l 260 174 l 347 174 l 347 521 l 434 521 l 434 0 l 347 0 z "},"ν":{"ha":608,"x_min":0,"x_max":434,"o":"m 174 0 l 174 174 l 260 174 l 260 0 l 174 0 m 87 174 l 87 347 l 174 347 l 174 174 l 87 174 m 260 174 l 260 347 l 347 347 l 347 174 l 260 174 m 0 347 l 0 521 l 87 521 l 87 347 l 0 347 m 347 347 l 347 521 l 434 521 l 434 347 l 347 347 z "},"ξ":{"ha":608,"x_min":0,"x_max":434,"o":"m 174 -174 l 174 -87 l 347 -87 l 347 -174 l 174 -174 m 347 -87 l 347 0 l 87 0 l 87 87 l 434 87 l 434 -87 l 347 -87 m 0 87 l 0 260 l 87 260 l 87 87 l 0 87 m 87 260 l 87 347 l 347 347 l 347 260 l 87 260 m 0 347 l 0 434 l 87 434 l 87 347 l 0 347 m 87 434 l 87 521 l 0 521 l 0 608 l 347 608 l 347 694 l 434 694 l 434 521 l 174 521 l 174 434 l 87 434 z "},"ο":{"ha":608,"x_min":0,"x_max":434,"o":"m 87 0 l 87 87 l 347 87 l 347 0 l 87 0 m 0 87 l 0 434 l 87 434 l 87 87 l 0 87 m 347 87 l 347 434 l 434 434 l 434 87 l 347 87 m 87 434 l 87 521 l 347 521 l 347 434 l 87 434 z "},"π":{"ha":694,"x_min":0,"x_max":521,"o":"m 87 0 l 87 434 l 0 434 l 0 521 l 521 521 l 521 434 l 434 434 l 434 0 l 347 0 l 347 434 l 174 434 l 174 0 l 87 0 z "},"ρ":{"ha":608,"x_min":0,"x_max":434,"o":"m 0 -174 l 0 434 l 87 434 l 87 174 l 347 174 l 347 87 l 87 87 l 87 -174 l 0 -174 m 347 174 l 347 434 l 434 434 l 434 174 l 347 174 m 87 434 l 87 521 l 347 521 l 347 434 l 87 434 z "},"ς":{"ha":608,"x_min":0,"x_max":434,"o":"m 174 -174 l 174 -87 l 347 -87 l 347 -174 l 174 -174 m 347 -87 l 347 0 l 434 0 l 434 -87 l 347 -87 m 87 0 l 87 87 l 347 87 l 347 0 l 87 0 m 0 87 l 0 434 l 87 434 l 87 87 l 0 87 m 347 347 l 347 434 l 434 434 l 434 347 l 347 347 m 87 434 l 87 521 l 347 521 l 347 434 l 87 434 z "},"σ":{"ha":694,"x_min":0,"x_max":521,"o":"m 87 0 l 87 87 l 347 87 l 347 0 l 87 0 m 0 87 l 0 434 l 87 434 l 87 87 l 0 87 m 347 87 l 347 434 l 87 434 l 87 521 l 521 521 l 521 434 l 434 434 l 434 87 l 347 87 z "},"τ":{"ha":608,"x_min":0,"x_max":434,"o":"m 174 0 l 174 434 l 0 434 l 0 521 l 434 521 l 434 434 l 260 434 l 260 0 l 174 0 z "},"υ":{"ha":608,"x_min":0,"x_max":434,"o":"m 87 0 l 87 87 l 347 87 l 347 0 l 87 0 m 0 87 l 0 521 l 87 521 l 87 87 l 0 87 m 347 87 l 347 521 l 434 521 l 434 87 l 347 87 z "},"φ":{"ha":608,"x_min":0,"x_max":434,"o":"m 0 260 l 0 434 l 87 434 l 87 260 l 0 260 m 347 260 l 347 434 l 434 434 l 434 260 l 347 260 m 174 0 l 174 174 l 87 174 l 87 260 l 174 260 l 174 434 l 87 434 l 87 521 l 174 521 l 174 694 l 260 694 l 260 521 l 347 521 l 347 434 l 260 434 l 260 260 l 347 260 l 347 174 l 260 174 l 260 0 l 174 0 z "},"χ":{"ha":608,"x_min":0,"x_max":434,"o":"m 0 0 l 0 87 l 87 87 l 87 0 l 0 0 m 347 0 l 347 87 l 434 87 l 434 0 l 347 0 m 87 87 l 87 174 l 174 174 l 174 87 l 87 87 m 260 87 l 260 174 l 347 174 l 347 87 l 260 87 m 174 174 l 174 347 l 260 347 l 260 174 l 174 174 m 87 347 l 87 434 l 174 434 l 174 347 l 87 347 m 260 347 l 260 434 l 347 434 l 347 347 l 260 347 m 0 434 l 0 521 l 87 521 l 87 434 l 0 434 m 347 434 l 347 521 l 434 521 l 434 434 l 347 434 z "},"ψ":{"ha":608,"x_min":0,"x_max":434,"o":"m 0 260 l 0 521 l 87 521 l 87 260 l 0 260 m 174 0 l 174 174 l 87 174 l 87 260 l 174 260 l 174 521 l 260 521 l 260 260 l 347 260 l 347 174 l 260 174 l 260 0 l 174 0 m 347 260 l 347 521 l 434 521 l 434 260 l 347 260 z "},"ω":{"ha":608,"x_min":0,"x_max":434,"o":"m 87 0 l 87 87 l 174 87 l 174 0 l 87 0 m 260 0 l 260 87 l 347 87 l 347 0 l 260 0 m 174 87 l 174 347 l 260 347 l 260 87 l 174 87 m 0 87 l 0 521 l 87 521 l 87 87 l 0 87 m 347 87 l 347 521 l 434 521 l 434 87 l 347 87 z "},"ϊ":{"ha":434,"x_min":0,"x_max":260,"o":"m 174 0 l 174 87 l 260 87 l 260 0 l 174 0 m 87 87 l 87 521 l 174 521 l 174 87 l 87 87 m 0 608 l 0 694 l 87 694 l 87 608 l 0 608 m 174 608 l 174 694 l 260 694 l 260 608 l 174 608 z "},"ϋ":{"ha":608,"x_min":0,"x_max":434,"o":"m 87 0 l 87 87 l 347 87 l 347 0 l 87 0 m 0 87 l 0 521 l 87 521 l 87 87 l 0 87 m 347 87 l 347 521 l 434 521 l 434 87 l 347 87 m 87 608 l 87 694 l 174 694 l 174 608 l 87 608 m 260 608 l 260 694 l 347 694 l 347 608 l 260 608 z "},"ό":{"ha":608,"x_min":0,"x_max":434,"o":"m 87 0 l 87 87 l 347 87 l 347 0 l 87 0 m 0 87 l 0 434 l 87 434 l 87 87 l 0 87 m 347 87 l 347 434 l 434 434 l 434 87 l 347 87 m 87 434 l 87 521 l 347 521 l 347 434 l 87 434 m 174 608 l 174 781 l 260 781 l 260 608 l 174 608 z "},"ύ":{"ha":608,"x_min":0,"x_max":434,"o":"m 87 0 l 87 87 l 347 87 l 347 0 l 87 0 m 0 87 l 0 521 l 87 521 l 87 87 l 0 87 m 347 87 l 347 521 l 434 521 l 434 87 l 347 87 m 174 608 l 174 781 l 260 781 l 260 608 l 174 608 z "},"ώ":{"ha":608,"x_min":0,"x_max":434,"o":"m 87 0 l 87 87 l 174 87 l 174 0 l 87 0 m 260 0 l 260 87 l 347 87 l 347 0 l 260 0 m 174 87 l 174 434 l 260 434 l 260 87 l 174 87 m 0 87 l 0 521 l 87 521 l 87 87 l 0 87 m 347 87 l 347 521 l 434 521 l 434 87 l 347 87 m 174 608 l 174 781 l 260 781 l 260 608 l 174 608 z "},"ϐ":{"ha":521,"x_min":0,"x_max":347,"o":"m 87 0 l 87 87 l 260 87 l 260 0 l 87 0 m 260 87 l 260 174 l 347 174 l 347 87 l 260 87 m 0 87 l 0 608 l 87 608 l 87 521 l 260 521 l 260 434 l 87 434 l 87 260 l 260 260 l 260 174 l 87 174 l 87 87 l 0 87 m 260 521 l 260 608 l 347 608 l 347 521 l 260 521 m 87 608 l 87 694 l 260 694 l 260 608 l 87 608 z "},"ϑ":{"ha":608,"x_min":0,"x_max":434,"o":"m 87 0 l 87 87 l 260 87 l 260 0 l 87 0 m 0 87 l 0 174 l 87 174 l 87 87 l 0 87 m 0 434 l 0 608 l 87 608 l 87 434 l 0 434 m 260 87 l 260 347 l 87 347 l 87 434 l 260 434 l 260 608 l 347 608 l 347 434 l 434 434 l 434 347 l 347 347 l 347 87 l 260 87 m 87 608 l 87 694 l 260 694 l 260 608 l 87 608 z "},"ϒ":{"ha":694,"x_min":0,"x_max":521,"o":"m 174 0 l 174 434 l 260 434 l 260 0 l 174 0 m 87 434 l 87 521 l 174 521 l 174 434 l 87 434 m 260 434 l 260 521 l 347 521 l 347 434 l 260 434 m 0 521 l 0 694 l 87 694 l 87 521 l 0 521 m 347 521 l 347 694 l 521 694 l 521 608 l 434 608 l 434 521 l 347 521 z "},"ϓ":{"ha":694,"x_min":0,"x_max":521,"o":"m 174 0 l 174 434 l 260 434 l 260 0 l 174 0 m 87 434 l 87 521 l 174 521 l 174 434 l 87 434 m 260 434 l 260 521 l 347 521 l 347 434 l 260 434 m 0 521 l 0 694 l 87 694 l 87 521 l 0 521 m 347 521 l 347 694 l 521 694 l 521 608 l 434 608 l 434 521 l 347 521 m 174 781 l 174 868 l 260 868 l 260 955 l 434 955 l 434 868 l 347 868 l 347 781 l 174 781 z "},"ϔ":{"ha":694,"x_min":0,"x_max":521,"o":"m 174 0 l 174 434 l 260 434 l 260 0 l 174 0 m 87 434 l 87 521 l 174 521 l 174 434 l 87 434 m 260 434 l 260 521 l 347 521 l 347 434 l 260 434 m 0 521 l 0 694 l 87 694 l 87 521 l 0 521 m 347 521 l 347 694 l 521 694 l 521 608 l 434 608 l 434 521 l 347 521 m 87 781 l 87 868 l 174 868 l 174 781 l 87 781 m 260 781 l 260 868 l 347 868 l 347 781 l 260 781 z "},"ϕ":{"ha":608,"x_min":0,"x_max":434,"o":"m 0 87 l 0 434 l 87 434 l 87 87 l 0 87 m 174 -174 l 174 0 l 87 0 l 87 87 l 174 87 l 174 434 l 260 434 l 260 87 l 347 87 l 347 0 l 260 0 l 260 -174 l 174 -174 m 347 87 l 347 434 l 434 434 l 434 87 l 347 87 m 87 434 l 87 521 l 174 521 l 174 434 l 87 434 m 260 434 l 260 521 l 347 521 l 347 434 l 260 434 z "},"ϖ":{"ha":608,"x_min":0,"x_max":434,"o":"m 87 0 l 87 87 l 174 87 l 174 0 l 87 0 m 260 0 l 260 87 l 347 87 l 347 0 l 260 0 m 174 87 l 174 347 l 260 347 l 260 87 l 174 87 m 0 87 l 0 434 l 87 434 l 87 87 l 0 87 m 347 87 l 347 434 l 434 434 l 434 87 l 347 87 m 0 521 l 0 608 l 434 608 l 434 521 l 0 521 z "},"—":{"ha":608,"x_min":0,"x_max":434,"o":"m 0 347 l 0 434 l 434 434 l 434 347 l 0 347 z "},"‘":{"ha":347,"x_min":0,"x_max":174,"o":"m 0 434 l 0 608 l 87 608 l 87 521 l 174 521 l 174 434 l 0 434 m 87 608 l 87 694 l 174 694 l 174 608 l 87 608 z "},"’":{"ha":347,"x_min":0,"x_max":174,"o":"m 0 434 l 0 521 l 87 521 l 87 434 l 0 434 m 87 521 l 87 608 l 0 608 l 0 694 l 174 694 l 174 521 l 87 521 z "},"‚":{"ha":347,"x_min":0,"x_max":174,"o":"m 0 -87 l 0 0 l 87 0 l 87 -87 l 0 -87 m 87 0 l 87 87 l 0 87 l 0 174 l 174 174 l 174 0 l 87 0 z "},"‛":{"ha":347,"x_min":0,"x_max":174,"o":"m 87 434 l 87 521 l 174 521 l 174 434 l 87 434 m 0 521 l 0 694 l 174 694 l 174 608 l 87 608 l 87 521 l 0 521 z "},"“":{"ha":608,"x_min":0,"x_max":434,"o":"m 0 434 l 0 608 l 87 608 l 87 521 l 174 521 l 174 434 l 0 434 m 260 434 l 260 608 l 347 608 l 347 521 l 434 521 l 434 434 l 260 434 m 87 608 l 87 694 l 174 694 l 174 608 l 87 608 m 347 608 l 347 694 l 434 694 l 434 608 l 347 608 z "},"”":{"ha":608,"x_min":0,"x_max":434,"o":"m 0 434 l 0 521 l 87 521 l 87 434 l 0 434 m 260 434 l 260 521 l 347 521 l 347 434 l 260 434 m 87 521 l 87 608 l 0 608 l 0 694 l 174 694 l 174 521 l 87 521 m 347 521 l 347 608 l 260 608 l 260 694 l 434 694 l 434 521 l 347 521 z "},"„":{"ha":608,"x_min":0,"x_max":434,"o":"m 0 -87 l 0 0 l 87 0 l 87 -87 l 0 -87 m 260 -87 l 260 0 l 347 0 l 347 -87 l 260 -87 m 87 0 l 87 87 l 0 87 l 0 174 l 174 174 l 174 0 l 87 0 m 347 0 l 347 87 l 260 87 l 260 174 l 434 174 l 434 0 l 347 0 z "},"†":{"ha":434,"x_min":0,"x_max":260,"o":"m 87 174 l 87 434 l 174 434 l 174 174 l 87 174 m 0 434 l 0 521 l 87 521 l 87 434 l 0 434 m 174 434 l 174 521 l 260 521 l 260 434 l 174 434 m 87 521 l 87 694 l 174 694 l 174 521 l 87 521 z "},"•":{"ha":434,"x_min":0,"x_max":260,"o":"m 0 87 l 0 521 l 87 521 l 87 434 l 174 434 l 174 347 l 260 347 l 260 260 l 174 260 l 174 174 l 87 174 l 87 87 l 0 87 z "},"…":{"ha":868,"x_min":0,"x_max":694,"o":"m 0 0 l 0 174 l 174 174 l 174 0 l 0 0 m 260 0 l 260 174 l 434 174 l 434 0 l 260 0 m 521 0 l 521 174 l 694 174 l 694 0 l 521 0 z "},"‹":{"ha":347,"x_min":0,"x_max":174,"o":"m 87 174 l 87 260 l 174 260 l 174 174 l 87 174 m 0 260 l 0 347 l 87 347 l 87 260 l 0 260 m 87 347 l 87 434 l 174 434 l 174 347 l 87 347 z "},"›":{"ha":347,"x_min":0,"x_max":174,"o":"m 0 174 l 0 260 l 87 260 l 87 174 l 0 174 m 87 260 l 87 347 l 174 347 l 174 260 l 87 260 m 0 347 l 0 434 l 87 434 l 87 347 l 0 347 z "},"€":{"ha":521,"x_min":0,"x_max":347,"o":"m 174 0 l 174 87 l 347 87 l 347 0 l 174 0 m 87 87 l 87 174 l 0 174 l 0 260 l 87 260 l 87 434 l 0 434 l 0 521 l 87 521 l 87 608 l 174 608 l 174 521 l 347 521 l 347 434 l 174 434 l 174 260 l 347 260 l 347 174 l 174 174 l 174 87 l 87 87 m 174 608 l 174 694 l 347 694 l 347 608 l 174 608 z "},"ﬁ":{"ha":608,"x_min":0,"x_max":434,"o":"m 87 0 l 87 434 l 0 434 l 0 521 l 87 521 l 87 608 l 174 608 l 174 521 l 434 521 l 434 0 l 347 0 l 347 434 l 174 434 l 174 0 l 87 0 m 174 608 l 174 694 l 434 694 l 434 608 l 174 608 z "},"ﬂ":{"ha":608,"x_min":0,"x_max":434,"o":"m 87 0 l 87 434 l 0 434 l 0 521 l 87 521 l 87 608 l 174 608 l 174 521 l 260 521 l 260 434 l 174 434 l 174 0 l 87 0 m 347 0 l 347 608 l 174 608 l 174 694 l 434 694 l 434 0 l 347 0 z "},"！":{"ha":347,"x_min":0,"x_max":174,"o":"m 0 0 l 0 174 l 174 174 l 174 0 l 0 0 m 0 347 l 0 694 l 174 694 l 174 347 l 0 347 z "},"＂":{"ha":434,"x_min":0,"x_max":260,"o":"m 0 434 l 0 694 l 87 694 l 87 434 l 0 434 m 174 434 l 174 694 l 260 694 l 260 434 l 174 434 z "},"＃":{"ha":868,"x_min":0,"x_max":694,"o":"m 434 260 l 434 434 l 260 434 l 260 260 l 434 260 m 174 0 l 174 174 l 0 174 l 0 260 l 174 260 l 174 434 l 0 434 l 0 521 l 174 521 l 174 694 l 260 694 l 260 521 l 434 521 l 434 694 l 521 694 l 521 521 l 694 521 l 694 434 l 521 434 l 521 260 l 694 260 l 694 174 l 521 174 l 521 0 l 434 0 l 434 174 l 260 174 l 260 0 l 174 0 z "},"＄":{"ha":781,"x_min":0,"x_max":608,"o":"m 0 87 l 0 174 l 87 174 l 87 87 l 0 87 m 521 87 l 521 260 l 608 260 l 608 87 l 521 87 m 0 347 l 0 521 l 87 521 l 87 347 l 0 347 m 521 434 l 521 521 l 608 521 l 608 434 l 521 434 m 260 -87 l 260 0 l 87 0 l 87 87 l 260 87 l 260 260 l 87 260 l 87 347 l 260 347 l 260 521 l 87 521 l 87 608 l 260 608 l 260 694 l 347 694 l 347 608 l 521 608 l 521 521 l 347 521 l 347 347 l 521 347 l 521 260 l 347 260 l 347 87 l 521 87 l 521 0 l 347 0 l 347 -87 l 260 -87 z "},"％":{"ha":781,"x_min":0,"x_max":608,"o":"m 0 0 l 0 87 l 87 87 l 87 0 l 0 0 m 521 0 l 521 87 l 434 87 l 434 0 l 521 0 m 87 87 l 87 174 l 174 174 l 174 87 l 87 87 m 347 -87 l 347 174 l 608 174 l 608 -87 l 347 -87 m 174 174 l 174 260 l 260 260 l 260 174 l 174 174 m 260 260 l 260 347 l 347 347 l 347 260 l 260 260 m 347 347 l 347 434 l 434 434 l 434 347 l 347 347 m 434 434 l 434 521 l 521 521 l 521 434 l 434 434 m 174 521 l 174 608 l 87 608 l 87 521 l 174 521 m 521 521 l 521 608 l 608 608 l 608 521 l 521 521 m 0 434 l 0 694 l 260 694 l 260 434 l 0 434 z "},"＆":{"ha":694,"x_min":0,"x_max":521,"o":"m 87 0 l 87 87 l 347 87 l 347 0 l 87 0 m 434 0 l 434 87 l 521 87 l 521 0 l 434 0 m 347 87 l 347 174 l 434 174 l 434 87 l 347 87 m 260 174 l 260 260 l 347 260 l 347 174 l 260 174 m 434 174 l 434 260 l 521 260 l 521 174 l 434 174 m 0 87 l 0 347 l 87 347 l 87 87 l 0 87 m 174 260 l 174 347 l 260 347 l 260 260 l 174 260 m 87 347 l 87 434 l 174 434 l 174 347 l 87 347 m 174 434 l 174 521 l 260 521 l 260 434 l 174 434 m 0 434 l 0 608 l 87 608 l 87 434 l 0 434 m 260 521 l 260 608 l 347 608 l 347 521 l 260 521 m 87 608 l 87 694 l 260 694 l 260 608 l 87 608 z "},"＇":{"ha":347,"x_min":0,"x_max":174,"o":"m 0 434 l 0 521 l 87 521 l 87 434 l 0 434 m 87 521 l 87 608 l 0 608 l 0 694 l 174 694 l 174 521 l 87 521 z "},"（":{"ha":434,"x_min":0,"x_max":260,"o":"m 174 0 l 174 87 l 260 87 l 260 0 l 174 0 m 87 87 l 87 174 l 174 174 l 174 87 l 87 87 m 0 174 l 0 521 l 87 521 l 87 174 l 0 174 m 87 521 l 87 608 l 174 608 l 174 521 l 87 521 m 174 608 l 174 694 l 260 694 l 260 608 l 174 608 z "},"）":{"ha":434,"x_min":0,"x_max":260,"o":"m 0 0 l 0 87 l 87 87 l 87 0 l 0 0 m 87 87 l 87 174 l 174 174 l 174 87 l 87 87 m 174 174 l 174 521 l 260 521 l 260 174 l 174 174 m 87 521 l 87 608 l 174 608 l 174 521 l 87 521 m 0 608 l 0 694 l 87 694 l 87 608 l 0 608 z "},"＊":{"ha":781,"x_min":0,"x_max":608,"o":"m 87 174 l 87 260 l 174 260 l 174 174 l 87 174 m 260 174 l 260 260 l 347 260 l 347 174 l 260 174 m 434 174 l 434 260 l 521 260 l 521 174 l 434 174 m 174 260 l 174 347 l 0 347 l 0 434 l 174 434 l 174 521 l 260 521 l 260 434 l 347 434 l 347 521 l 434 521 l 434 434 l 608 434 l 608 347 l 434 347 l 434 260 l 347 260 l 347 347 l 260 347 l 260 260 l 174 260 m 87 521 l 87 608 l 174 608 l 174 521 l 87 521 m 260 521 l 260 608 l 347 608 l 347 521 l 260 521 m 434 521 l 434 608 l 521 608 l 521 521 l 434 521 z "},"＋":{"ha":608,"x_min":0,"x_max":434,"o":"m 174 174 l 174 347 l 0 347 l 0 434 l 174 434 l 174 608 l 260 608 l 260 434 l 434 434 l 434 347 l 260 347 l 260 174 l 174 174 z "},"，":{"ha":347,"x_min":0,"x_max":174,"o":"m 0 -87 l 0 0 l 87 0 l 87 -87 l 0 -87 m 87 0 l 87 87 l 0 87 l 0 174 l 174 174 l 174 0 l 87 0 z "},"－":{"ha":781,"x_min":0,"x_max":608,"o":"m 0 347 l 0 434 l 608 434 l 608 347 l 0 347 z "},"．":{"ha":347,"x_min":0,"x_max":174,"o":"m 0 0 l 0 174 l 174 174 l 174 0 l 0 0 z "},"／":{"ha":781,"x_min":0,"x_max":608,"o":"m 0 0 l 0 87 l 87 87 l 87 0 l 0 0 m 87 87 l 87 174 l 174 174 l 174 87 l 87 87 m 174 174 l 174 260 l 260 260 l 260 174 l 174 174 m 260 260 l 260 347 l 347 347 l 347 260 l 260 260 m 347 347 l 347 434 l 434 434 l 434 347 l 347 347 m 434 434 l 434 521 l 521 521 l 521 434 l 434 434 m 521 521 l 521 608 l 608 608 l 608 521 l 521 521 z "},"０":{"ha":781,"x_min":0,"x_max":608,"o":"m 87 0 l 87 87 l 521 87 l 521 0 l 87 0 m 174 260 l 174 347 l 260 347 l 260 260 l 174 260 m 260 347 l 260 434 l 347 434 l 347 347 l 260 347 m 347 434 l 347 521 l 434 521 l 434 434 l 347 434 m 0 87 l 0 608 l 87 608 l 87 260 l 174 260 l 174 174 l 87 174 l 87 87 l 0 87 m 521 87 l 521 521 l 434 521 l 434 608 l 87 608 l 87 694 l 521 694 l 521 608 l 608 608 l 608 87 l 521 87 z "},"１":{"ha":781,"x_min":0,"x_max":608,"o":"m 87 434 l 87 521 l 174 521 l 174 434 l 87 434 m 0 0 l 0 87 l 260 87 l 260 521 l 174 521 l 174 608 l 260 608 l 260 694 l 347 694 l 347 87 l 608 87 l 608 0 l 0 0 z "},"２":{"ha":781,"x_min":0,"x_max":608,"o":"m 0 0 l 0 174 l 87 174 l 87 87 l 608 87 l 608 0 l 0 0 m 87 174 l 87 260 l 174 260 l 174 174 l 87 174 m 174 260 l 174 347 l 347 347 l 347 260 l 174 260 m 347 347 l 347 434 l 521 434 l 521 347 l 347 347 m 0 521 l 0 608 l 87 608 l 87 521 l 0 521 m 521 434 l 521 608 l 608 608 l 608 434 l 521 434 m 87 608 l 87 694 l 521 694 l 521 608 l 87 608 z "},"３":{"ha":781,"x_min":0,"x_max":608,"o":"m 87 0 l 87 87 l 521 87 l 521 0 l 87 0 m 0 87 l 0 174 l 87 174 l 87 87 l 0 87 m 521 87 l 521 347 l 608 347 l 608 87 l 521 87 m 174 347 l 174 434 l 521 434 l 521 347 l 174 347 m 0 521 l 0 608 l 87 608 l 87 521 l 0 521 m 521 434 l 521 608 l 608 608 l 608 434 l 521 434 m 87 608 l 87 694 l 521 694 l 521 608 l 87 608 z "},"４":{"ha":781,"x_min":0,"x_max":608,"o":"m 87 434 l 87 521 l 174 521 l 174 434 l 87 434 m 174 521 l 174 608 l 260 608 l 260 521 l 174 521 m 347 0 l 347 260 l 0 260 l 0 434 l 87 434 l 87 347 l 347 347 l 347 608 l 260 608 l 260 694 l 434 694 l 434 347 l 608 347 l 608 260 l 434 260 l 434 0 l 347 0 z "},"５":{"ha":781,"x_min":0,"x_max":608,"o":"m 87 0 l 87 87 l 521 87 l 521 0 l 87 0 m 0 87 l 0 174 l 87 174 l 87 87 l 0 87 m 521 87 l 521 347 l 608 347 l 608 87 l 521 87 m 0 347 l 0 694 l 608 694 l 608 608 l 87 608 l 87 434 l 521 434 l 521 347 l 0 347 z "},"６":{"ha":781,"x_min":0,"x_max":608,"o":"m 87 0 l 87 87 l 521 87 l 521 0 l 87 0 m 521 87 l 521 347 l 608 347 l 608 87 l 521 87 m 0 87 l 0 521 l 87 521 l 87 434 l 521 434 l 521 347 l 87 347 l 87 87 l 0 87 m 87 521 l 87 608 l 174 608 l 174 521 l 87 521 m 174 608 l 174 694 l 521 694 l 521 608 l 174 608 z "},"７":{"ha":781,"x_min":0,"x_max":608,"o":"m 260 0 l 260 260 l 347 260 l 347 0 l 260 0 m 347 260 l 347 347 l 434 347 l 434 260 l 347 260 m 434 347 l 434 434 l 521 434 l 521 347 l 434 347 m 521 434 l 521 608 l 0 608 l 0 694 l 608 694 l 608 434 l 521 434 z "},"８":{"ha":781,"x_min":0,"x_max":608,"o":"m 87 0 l 87 87 l 521 87 l 521 0 l 87 0 m 0 87 l 0 347 l 87 347 l 87 87 l 0 87 m 521 87 l 521 347 l 608 347 l 608 87 l 521 87 m 87 347 l 87 434 l 521 434 l 521 347 l 87 347 m 0 434 l 0 608 l 87 608 l 87 434 l 0 434 m 521 434 l 521 608 l 608 608 l 608 434 l 521 434 m 87 608 l 87 694 l 521 694 l 521 608 l 87 608 z "},"９":{"ha":781,"x_min":0,"x_max":608,"o":"m 87 0 l 87 87 l 434 87 l 434 0 l 87 0 m 434 87 l 434 174 l 521 174 l 521 87 l 434 87 m 0 347 l 0 608 l 87 608 l 87 347 l 0 347 m 521 174 l 521 260 l 87 260 l 87 347 l 521 347 l 521 608 l 608 608 l 608 174 l 521 174 m 87 608 l 87 694 l 521 694 l 521 608 l 87 608 z "},"：":{"ha":347,"x_min":0,"x_max":174,"o":"m 0 87 l 0 260 l 174 260 l 174 87 l 0 87 m 0 434 l 0 608 l 174 608 l 174 434 l 0 434 z "},"；":{"ha":347,"x_min":0,"x_max":174,"o":"m 0 0 l 0 87 l 87 87 l 87 0 l 0 0 m 87 87 l 87 174 l 0 174 l 0 260 l 174 260 l 174 87 l 87 87 m 0 434 l 0 608 l 174 608 l 174 434 l 0 434 z "},"＜":{"ha":521,"x_min":0,"x_max":347,"o":"m 260 0 l 260 87 l 347 87 l 347 0 l 260 0 m 174 87 l 174 174 l 260 174 l 260 87 l 174 87 m 87 174 l 87 260 l 174 260 l 174 174 l 87 174 m 0 260 l 0 347 l 87 347 l 87 260 l 0 260 m 87 347 l 87 434 l 174 434 l 174 347 l 87 347 m 174 434 l 174 521 l 260 521 l 260 434 l 174 434 m 260 521 l 260 608 l 347 608 l 347 521 l 260 521 z "},"＝":{"ha":781,"x_min":0,"x_max":608,"o":"m 0 87 l 0 174 l 608 174 l 608 87 l 0 87 m 0 434 l 0 521 l 608 521 l 608 434 l 0 434 z "},"＞":{"ha":521,"x_min":0,"x_max":347,"o":"m 0 0 l 0 87 l 87 87 l 87 0 l 0 0 m 87 87 l 87 174 l 174 174 l 174 87 l 87 87 m 174 174 l 174 260 l 260 260 l 260 174 l 174 174 m 260 260 l 260 347 l 347 347 l 347 260 l 260 260 m 174 347 l 174 434 l 260 434 l 260 347 l 174 347 m 87 434 l 87 521 l 174 521 l 174 434 l 87 434 m 0 521 l 0 608 l 87 608 l 87 521 l 0 521 z "},"？":{"ha":781,"x_min":0,"x_max":608,"o":"m 260 0 l 260 87 l 347 87 l 347 0 l 260 0 m 260 260 l 260 347 l 347 347 l 347 260 l 260 260 m 347 347 l 347 434 l 521 434 l 521 347 l 347 347 m 0 521 l 0 608 l 87 608 l 87 521 l 0 521 m 521 434 l 521 608 l 608 608 l 608 434 l 521 434 m 87 608 l 87 694 l 521 694 l 521 608 l 87 608 z "},"＠":{"ha":781,"x_min":0,"x_max":608,"o":"m 87 0 l 87 87 l 608 87 l 608 0 l 87 0 m 174 260 l 174 434 l 260 434 l 260 260 l 174 260 m 260 174 l 260 260 l 347 260 l 347 434 l 260 434 l 260 521 l 434 521 l 434 260 l 521 260 l 521 174 l 260 174 m 0 87 l 0 608 l 87 608 l 87 87 l 0 87 m 521 260 l 521 608 l 608 608 l 608 260 l 521 260 m 87 608 l 87 694 l 521 694 l 521 608 l 87 608 z "},"Ａ":{"ha":781,"x_min":0,"x_max":608,"o":"m 0 0 l 0 174 l 87 174 l 87 0 l 0 0 m 521 0 l 521 174 l 608 174 l 608 0 l 521 0 m 87 174 l 87 347 l 174 347 l 174 521 l 260 521 l 260 347 l 347 347 l 347 521 l 434 521 l 434 347 l 521 347 l 521 174 l 434 174 l 434 260 l 174 260 l 174 174 l 87 174 m 260 521 l 260 694 l 347 694 l 347 521 l 260 521 z "},"Ｂ":{"ha":781,"x_min":0,"x_max":608,"o":"m 521 87 l 521 347 l 608 347 l 608 87 l 521 87 m 521 434 l 521 608 l 608 608 l 608 434 l 521 434 m 0 0 l 0 694 l 521 694 l 521 608 l 87 608 l 87 434 l 521 434 l 521 347 l 87 347 l 87 87 l 521 87 l 521 0 l 0 0 z "},"Ｃ":{"ha":781,"x_min":0,"x_max":608,"o":"m 87 0 l 87 87 l 521 87 l 521 0 l 87 0 m 521 87 l 521 174 l 608 174 l 608 87 l 521 87 m 0 87 l 0 608 l 87 608 l 87 87 l 0 87 m 521 521 l 521 608 l 608 608 l 608 521 l 521 521 m 87 608 l 87 694 l 521 694 l 521 608 l 87 608 z "},"Ｄ":{"ha":781,"x_min":0,"x_max":608,"o":"m 521 87 l 521 608 l 608 608 l 608 87 l 521 87 m 0 0 l 0 694 l 521 694 l 521 608 l 87 608 l 87 87 l 521 87 l 521 0 l 0 0 z "},"Ｅ":{"ha":781,"x_min":0,"x_max":608,"o":"m 0 0 l 0 694 l 608 694 l 608 608 l 87 608 l 87 434 l 521 434 l 521 347 l 87 347 l 87 87 l 608 87 l 608 0 l 0 0 z "},"Ｆ":{"ha":781,"x_min":0,"x_max":608,"o":"m 0 0 l 0 694 l 608 694 l 608 608 l 87 608 l 87 434 l 521 434 l 521 347 l 87 347 l 87 0 l 0 0 z "},"Ｇ":{"ha":781,"x_min":0,"x_max":608,"o":"m 87 0 l 87 87 l 434 87 l 434 0 l 87 0 m 521 0 l 521 87 l 434 87 l 434 174 l 521 174 l 521 347 l 347 347 l 347 434 l 608 434 l 608 0 l 521 0 m 0 87 l 0 608 l 87 608 l 87 87 l 0 87 m 521 521 l 521 608 l 608 608 l 608 521 l 521 521 m 87 608 l 87 694 l 521 694 l 521 608 l 87 608 z "},"Ｈ":{"ha":781,"x_min":0,"x_max":608,"o":"m 0 0 l 0 694 l 87 694 l 87 434 l 521 434 l 521 694 l 608 694 l 608 0 l 521 0 l 521 347 l 87 347 l 87 0 l 0 0 z "},"Ｉ":{"ha":608,"x_min":0,"x_max":434,"o":"m 0 0 l 0 87 l 174 87 l 174 608 l 0 608 l 0 694 l 434 694 l 434 608 l 260 608 l 260 87 l 434 87 l 434 0 l 0 0 z "},"Ｊ":{"ha":781,"x_min":0,"x_max":608,"o":"m 87 0 l 87 87 l 521 87 l 521 0 l 87 0 m 0 87 l 0 260 l 87 260 l 87 87 l 0 87 m 521 87 l 521 694 l 608 694 l 608 87 l 521 87 z "},"Ｋ":{"ha":781,"x_min":0,"x_max":608,"o":"m 521 0 l 521 87 l 608 87 l 608 0 l 521 0 m 434 87 l 434 174 l 521 174 l 521 87 l 434 87 m 347 174 l 347 260 l 434 260 l 434 174 l 347 174 m 260 260 l 260 347 l 347 347 l 347 260 l 260 260 m 174 347 l 174 434 l 260 434 l 260 347 l 174 347 m 260 434 l 260 521 l 347 521 l 347 434 l 260 434 m 347 521 l 347 608 l 434 608 l 434 521 l 347 521 m 0 0 l 0 694 l 87 694 l 87 347 l 174 347 l 174 260 l 87 260 l 87 0 l 0 0 m 434 608 l 434 694 l 608 694 l 608 608 l 434 608 z "},"Ｌ":{"ha":781,"x_min":0,"x_max":608,"o":"m 0 0 l 0 694 l 87 694 l 87 87 l 608 87 l 608 0 l 0 0 z "},"Ｍ":{"ha":781,"x_min":0,"x_max":608,"o":"m 260 0 l 260 174 l 347 174 l 347 0 l 260 0 m 174 174 l 174 347 l 260 347 l 260 174 l 174 174 m 347 174 l 347 347 l 434 347 l 434 174 l 347 174 m 0 0 l 0 694 l 87 694 l 87 521 l 174 521 l 174 347 l 87 347 l 87 0 l 0 0 m 521 0 l 521 347 l 434 347 l 434 521 l 521 521 l 521 694 l 608 694 l 608 0 l 521 0 z "},"Ｎ":{"ha":781,"x_min":0,"x_max":608,"o":"m 347 260 l 347 347 l 434 347 l 434 260 l 347 260 m 260 347 l 260 434 l 347 434 l 347 347 l 260 347 m 174 434 l 174 521 l 260 521 l 260 434 l 174 434 m 0 0 l 0 694 l 87 694 l 87 608 l 174 608 l 174 521 l 87 521 l 87 0 l 0 0 m 521 0 l 521 174 l 434 174 l 434 260 l 521 260 l 521 694 l 608 694 l 608 0 l 521 0 z "},"Ｏ":{"ha":781,"x_min":0,"x_max":608,"o":"m 174 0 l 174 87 l 434 87 l 434 0 l 174 0 m 87 87 l 87 174 l 174 174 l 174 87 l 87 87 m 434 87 l 434 174 l 521 174 l 521 87 l 434 87 m 0 174 l 0 521 l 87 521 l 87 174 l 0 174 m 521 174 l 521 521 l 608 521 l 608 174 l 521 174 m 87 521 l 87 608 l 174 608 l 174 521 l 87 521 m 434 521 l 434 608 l 521 608 l 521 521 l 434 521 m 174 608 l 174 694 l 434 694 l 434 608 l 174 608 z "},"Ｐ":{"ha":781,"x_min":0,"x_max":608,"o":"m 521 347 l 521 608 l 608 608 l 608 347 l 521 347 m 0 0 l 0 694 l 521 694 l 521 608 l 87 608 l 87 347 l 521 347 l 521 260 l 87 260 l 87 0 l 0 0 z "},"Ｑ":{"ha":781,"x_min":0,"x_max":608,"o":"m 174 0 l 174 87 l 434 87 l 434 0 l 174 0 m 521 0 l 521 87 l 608 87 l 608 0 l 521 0 m 87 87 l 87 174 l 174 174 l 174 87 l 87 87 m 434 87 l 434 174 l 521 174 l 521 87 l 434 87 m 347 174 l 347 260 l 434 260 l 434 174 l 347 174 m 260 260 l 260 347 l 347 347 l 347 260 l 260 260 m 0 174 l 0 521 l 87 521 l 87 174 l 0 174 m 521 174 l 521 521 l 608 521 l 608 174 l 521 174 m 87 521 l 87 608 l 174 608 l 174 521 l 87 521 m 434 521 l 434 608 l 521 608 l 521 521 l 434 521 m 174 608 l 174 694 l 434 694 l 434 608 l 174 608 z "},"Ｒ":{"ha":781,"x_min":0,"x_max":608,"o":"m 521 0 l 521 87 l 608 87 l 608 0 l 521 0 m 434 87 l 434 174 l 521 174 l 521 87 l 434 87 m 521 347 l 521 608 l 608 608 l 608 347 l 521 347 m 0 0 l 0 694 l 521 694 l 521 608 l 87 608 l 87 347 l 521 347 l 521 260 l 434 260 l 434 174 l 347 174 l 347 260 l 87 260 l 87 0 l 0 0 z "},"Ｓ":{"ha":781,"x_min":0,"x_max":608,"o":"m 87 0 l 87 87 l 521 87 l 521 0 l 87 0 m 0 87 l 0 174 l 87 174 l 87 87 l 0 87 m 521 87 l 521 347 l 608 347 l 608 87 l 521 87 m 87 347 l 87 434 l 521 434 l 521 347 l 87 347 m 0 434 l 0 608 l 87 608 l 87 434 l 0 434 m 521 521 l 521 608 l 608 608 l 608 521 l 521 521 m 87 608 l 87 694 l 521 694 l 521 608 l 87 608 z "},"Ｔ":{"ha":781,"x_min":0,"x_max":608,"o":"m 260 0 l 260 608 l 0 608 l 0 694 l 608 694 l 608 608 l 347 608 l 347 0 l 260 0 z "},"Ｕ":{"ha":781,"x_min":0,"x_max":608,"o":"m 174 0 l 174 87 l 434 87 l 434 0 l 174 0 m 87 87 l 87 174 l 174 174 l 174 87 l 87 87 m 434 87 l 434 174 l 521 174 l 521 87 l 434 87 m 0 174 l 0 694 l 87 694 l 87 174 l 0 174 m 521 174 l 521 694 l 608 694 l 608 174 l 521 174 z "},"Ｖ":{"ha":781,"x_min":0,"x_max":608,"o":"m 260 0 l 260 87 l 347 87 l 347 0 l 260 0 m 174 87 l 174 174 l 260 174 l 260 87 l 174 87 m 347 87 l 347 174 l 434 174 l 434 87 l 347 87 m 87 174 l 87 260 l 174 260 l 174 174 l 87 174 m 434 174 l 434 260 l 521 260 l 521 174 l 434 174 m 0 260 l 0 694 l 87 694 l 87 260 l 0 260 m 521 260 l 521 694 l 608 694 l 608 260 l 521 260 z "},"Ｗ":{"ha":781,"x_min":0,"x_max":608,"o":"m 87 0 l 87 174 l 174 174 l 174 0 l 87 0 m 434 0 l 434 174 l 521 174 l 521 0 l 434 0 m 174 174 l 174 347 l 260 347 l 260 174 l 174 174 m 347 174 l 347 347 l 434 347 l 434 174 l 347 174 m 260 347 l 260 521 l 347 521 l 347 347 l 260 347 m 0 174 l 0 694 l 87 694 l 87 174 l 0 174 m 521 174 l 521 694 l 608 694 l 608 174 l 521 174 z "},"Ｘ":{"ha":781,"x_min":0,"x_max":608,"o":"m 0 0 l 0 87 l 87 87 l 87 0 l 0 0 m 521 0 l 521 87 l 608 87 l 608 0 l 521 0 m 87 87 l 87 174 l 174 174 l 174 87 l 87 87 m 434 87 l 434 174 l 521 174 l 521 87 l 434 87 m 174 174 l 174 260 l 260 260 l 260 174 l 174 174 m 347 174 l 347 260 l 434 260 l 434 174 l 347 174 m 260 260 l 260 434 l 347 434 l 347 260 l 260 260 m 174 434 l 174 521 l 260 521 l 260 434 l 174 434 m 347 434 l 347 521 l 434 521 l 434 434 l 347 434 m 87 521 l 87 608 l 174 608 l 174 521 l 87 521 m 434 521 l 434 608 l 521 608 l 521 521 l 434 521 m 0 608 l 0 694 l 87 694 l 87 608 l 0 608 m 521 608 l 521 694 l 608 694 l 608 608 l 521 608 z "},"Ｙ":{"ha":781,"x_min":0,"x_max":608,"o":"m 260 0 l 260 347 l 347 347 l 347 0 l 260 0 m 174 347 l 174 434 l 260 434 l 260 347 l 174 347 m 347 347 l 347 434 l 434 434 l 434 347 l 347 347 m 87 434 l 87 521 l 174 521 l 174 434 l 87 434 m 434 434 l 434 521 l 521 521 l 521 434 l 434 434 m 0 521 l 0 694 l 87 694 l 87 521 l 0 521 m 521 521 l 521 694 l 608 694 l 608 521 l 521 521 z "},"Ｚ":{"ha":781,"x_min":0,"x_max":608,"o":"m 0 0 l 0 174 l 87 174 l 87 87 l 608 87 l 608 0 l 0 0 m 87 174 l 87 260 l 174 260 l 174 174 l 87 174 m 174 260 l 174 347 l 260 347 l 260 260 l 174 260 m 260 347 l 260 434 l 347 434 l 347 347 l 260 347 m 347 434 l 347 521 l 434 521 l 434 434 l 347 434 m 434 521 l 434 608 l 0 608 l 0 694 l 608 694 l 608 608 l 521 608 l 521 521 l 434 521 z "},"［":{"ha":434,"x_min":0,"x_max":260,"o":"m 0 0 l 0 694 l 260 694 l 260 608 l 87 608 l 87 87 l 260 87 l 260 0 l 0 0 z "},"＼":{"ha":781,"x_min":0,"x_max":608,"o":"m 521 0 l 521 87 l 608 87 l 608 0 l 521 0 m 434 87 l 434 174 l 521 174 l 521 87 l 434 87 m 347 174 l 347 260 l 434 260 l 434 174 l 347 174 m 260 260 l 260 347 l 347 347 l 347 260 l 260 260 m 174 347 l 174 434 l 260 434 l 260 347 l 174 347 m 87 434 l 87 521 l 174 521 l 174 434 l 87 434 m 0 521 l 0 608 l 87 608 l 87 521 l 0 521 z "},"］":{"ha":434,"x_min":0,"x_max":260,"o":"m 0 0 l 0 87 l 174 87 l 174 608 l 0 608 l 0 694 l 260 694 l 260 0 l 0 0 z "},"＾":{"ha":781,"x_min":0,"x_max":608,"o":"m 0 434 l 0 521 l 87 521 l 87 608 l 174 608 l 174 694 l 434 694 l 434 608 l 521 608 l 521 521 l 608 521 l 608 434 l 434 434 l 434 521 l 347 521 l 347 608 l 260 608 l 260 521 l 174 521 l 174 434 l 0 434 z "},"＿":{"ha":781,"x_min":0,"x_max":608,"o":"m 0 0 l 0 87 l 608 87 l 608 0 l 0 0 z "},"｀":{"ha":521,"x_min":0,"x_max":347,"o":"m 174 434 l 174 521 l 87 521 l 87 608 l 0 608 l 0 694 l 174 694 l 174 608 l 260 608 l 260 521 l 347 521 l 347 434 l 174 434 z "}}}
